G04*
G04 #@! TF.GenerationSoftware,Altium Limited,Altium Designer,23.1.1 (15)*
G04*
G04 Layer_Physical_Order=2*
G04 Layer_Color=16711680*
%FSLAX44Y44*%
%MOMM*%
G71*
G04*
G04 #@! TF.SameCoordinates,30CF7A92-77B0-4B7A-85BE-2C256DE05FD5*
G04*
G04*
G04 #@! TF.FilePolarity,Positive*
G04*
G01*
G75*
%ADD65C,1.5000*%
%ADD66C,1.0000*%
%ADD67C,0.5000*%
%ADD68O,4.5000X2.5000*%
%ADD69O,2.5000X4.5000*%
%ADD70O,2.5000X5.0000*%
%ADD71C,2.5000*%
%ADD72O,2.5000X1.2000*%
%ADD73R,2.5000X1.2000*%
%ADD74C,1.6000*%
%ADD75R,1.6000X1.6000*%
%ADD76C,1.2080*%
%ADD77R,1.2080X1.2080*%
%ADD78C,5.5000*%
%ADD79C,1.5000*%
%ADD80R,1.5000X1.5000*%
%ADD81O,3.2000X2.5000*%
%ADD82C,1.0000*%
%ADD83C,0.8000*%
G36*
X1096010Y1270D02*
X0D01*
Y642620D01*
X1096010D01*
Y1270D01*
D02*
G37*
%LPC*%
G36*
X577850Y596867D02*
X577850Y596867D01*
X292100D01*
X292100Y596867D01*
X289479Y596522D01*
X287037Y595510D01*
X284939Y593901D01*
X241759Y550721D01*
X240150Y548623D01*
X239138Y546181D01*
X238793Y543560D01*
X238793Y543560D01*
Y533957D01*
X237523Y533431D01*
X236408Y534546D01*
X234452Y535675D01*
X232270Y536260D01*
X230010D01*
X227828Y535675D01*
X225872Y534546D01*
X224274Y532948D01*
X223145Y530992D01*
X222560Y528810D01*
Y526550D01*
X223145Y524368D01*
X224274Y522412D01*
X225872Y520814D01*
X227828Y519685D01*
X230010Y519100D01*
X232270D01*
X234452Y519685D01*
X236408Y520814D01*
X237523Y521929D01*
X238793Y521403D01*
Y513957D01*
X237523Y513431D01*
X236408Y514546D01*
X234452Y515675D01*
X232270Y516260D01*
X230010D01*
X227828Y515675D01*
X225872Y514546D01*
X224274Y512948D01*
X223145Y510992D01*
X222560Y508810D01*
Y506550D01*
X223145Y504368D01*
X224274Y502412D01*
X225872Y500814D01*
X227828Y499685D01*
X230010Y499100D01*
X232270D01*
X234452Y499685D01*
X236408Y500814D01*
X237523Y501930D01*
X238793Y501403D01*
Y493957D01*
X237523Y493431D01*
X236408Y494546D01*
X234452Y495675D01*
X232410Y496222D01*
Y487680D01*
X231140D01*
Y486410D01*
X222598D01*
X223145Y484368D01*
X224274Y482412D01*
X225872Y480814D01*
X227828Y479685D01*
X228903Y479397D01*
X228736Y478127D01*
X144671D01*
X142240Y478447D01*
X139619Y478102D01*
X137177Y477090D01*
X136929Y476900D01*
X133660D01*
Y473631D01*
X133470Y473383D01*
X132458Y470941D01*
X132113Y468320D01*
Y405011D01*
X132113Y405010D01*
X132458Y402390D01*
X133470Y399947D01*
X135079Y397850D01*
X142133Y390796D01*
X141728Y389405D01*
X140515Y389080D01*
X58150D01*
X56652Y389945D01*
X54470Y390530D01*
X52210D01*
X50028Y389945D01*
X48072Y388816D01*
X46474Y387218D01*
X45345Y385262D01*
X44760Y383080D01*
Y380820D01*
X45345Y378638D01*
X46474Y376682D01*
X48072Y375084D01*
X50028Y373955D01*
X52210Y373370D01*
X54470D01*
X56335Y373870D01*
X138700D01*
X140198Y373005D01*
X142380Y372420D01*
X144640D01*
X146822Y373005D01*
X148193Y373797D01*
X149463Y373100D01*
Y368900D01*
X148193Y368203D01*
X146822Y368995D01*
X144640Y369580D01*
X142380D01*
X140515Y369080D01*
X58150D01*
X56652Y369945D01*
X54470Y370530D01*
X52210D01*
X50028Y369945D01*
X48072Y368816D01*
X46474Y367218D01*
X45345Y365262D01*
X44760Y363080D01*
Y360820D01*
X45345Y358638D01*
X46474Y356682D01*
X48072Y355084D01*
X50028Y353955D01*
X52210Y353370D01*
X54470D01*
X56335Y353870D01*
X138700D01*
X140198Y353005D01*
X142380Y352420D01*
X144640D01*
X146822Y353005D01*
X148193Y353797D01*
X149463Y353100D01*
Y348900D01*
X148193Y348203D01*
X146822Y348995D01*
X144780Y349542D01*
Y341000D01*
X143510D01*
Y339730D01*
X134968D01*
X135515Y337688D01*
X136644Y335732D01*
X138242Y334134D01*
X140198Y333005D01*
X140695Y332872D01*
X140528Y331602D01*
X53815D01*
X51194Y331257D01*
X49440Y330530D01*
X44760D01*
Y325850D01*
X44033Y324096D01*
X43688Y321475D01*
X44033Y318854D01*
X44760Y317100D01*
Y313370D01*
X47885D01*
X48752Y312705D01*
X51194Y311693D01*
X53815Y311348D01*
X143035D01*
X145656Y311693D01*
X146297Y311959D01*
X147353Y311254D01*
Y228600D01*
X147353Y228600D01*
X147698Y225979D01*
X148710Y223537D01*
X150319Y221439D01*
X157939Y213819D01*
X160037Y212210D01*
X162479Y211198D01*
X165100Y210853D01*
X167721Y211198D01*
X170163Y212210D01*
X172261Y213819D01*
X173870Y215917D01*
X174882Y218359D01*
X175227Y220980D01*
X174882Y223601D01*
X173870Y226043D01*
X172261Y228141D01*
X167607Y232795D01*
Y317375D01*
X168360Y318357D01*
X169372Y320799D01*
X169717Y323420D01*
X169717Y323420D01*
Y387660D01*
X169717Y387660D01*
X169372Y390281D01*
X168360Y392724D01*
X166751Y394821D01*
X166751Y394821D01*
X152367Y409205D01*
Y457873D01*
X230820D01*
X233441Y458218D01*
X235569Y459100D01*
X238793D01*
Y405515D01*
X236249Y402970D01*
X229490D01*
Y381890D01*
X250570D01*
Y388649D01*
X256081Y394159D01*
X257690Y396257D01*
X258702Y398699D01*
X259047Y401320D01*
X259047Y401320D01*
Y461835D01*
X259938Y462183D01*
X260317Y462184D01*
X261839Y460199D01*
X263937Y458590D01*
X266379Y457578D01*
X269000Y457233D01*
X271621Y457578D01*
X274063Y458590D01*
X276161Y460199D01*
X277770Y462297D01*
X278782Y464739D01*
X279127Y467360D01*
Y526729D01*
X279415Y526921D01*
X280685Y526242D01*
Y525780D01*
Y425300D01*
X280944Y423332D01*
X281704Y421497D01*
X282912Y419922D01*
X296475Y406360D01*
X297190Y404633D01*
X298559Y402849D01*
X300343Y401480D01*
X301530Y400989D01*
X301277Y399719D01*
X292980D01*
X291014Y399328D01*
X289346Y398214D01*
X242904Y351772D01*
X241418Y352170D01*
X238642D01*
X235962Y351452D01*
X233558Y350064D01*
X231596Y348102D01*
X230208Y345698D01*
X229490Y343018D01*
Y340242D01*
X230208Y337562D01*
X231596Y335158D01*
X233558Y333196D01*
X235962Y331808D01*
X238642Y331090D01*
X241418D01*
X244098Y331808D01*
X246502Y333196D01*
X248464Y335158D01*
X249852Y337562D01*
X250570Y340242D01*
Y343018D01*
X250172Y344504D01*
X295109Y389441D01*
X296978D01*
X297540Y388302D01*
X297190Y387847D01*
X296330Y385769D01*
X296036Y383540D01*
X296330Y381311D01*
X297190Y379233D01*
X298559Y377449D01*
X300343Y376080D01*
X301530Y375589D01*
X301277Y374319D01*
X292980D01*
X291014Y373928D01*
X289346Y372814D01*
X242904Y326372D01*
X241418Y326770D01*
X238642D01*
X235962Y326052D01*
X233558Y324664D01*
X231596Y322702D01*
X230208Y320298D01*
X229490Y317618D01*
Y314842D01*
X230208Y312162D01*
X231596Y309758D01*
X233558Y307796D01*
X235962Y306408D01*
X238642Y305690D01*
X241418D01*
X242843Y306072D01*
X244346Y305183D01*
X244392Y304999D01*
X240763Y301370D01*
X238642D01*
X235962Y300652D01*
X233558Y299264D01*
X231596Y297302D01*
X230208Y294898D01*
X229490Y292218D01*
Y289442D01*
X230208Y286762D01*
X231596Y284358D01*
X233558Y282396D01*
X235962Y281008D01*
X238642Y280290D01*
X241418D01*
X244098Y281008D01*
X246502Y282396D01*
X248464Y284358D01*
X249852Y286762D01*
X250570Y289442D01*
Y292218D01*
X249852Y294898D01*
X249476Y295549D01*
X295889Y341961D01*
X301277D01*
X301530Y340691D01*
X300343Y340200D01*
X298559Y338831D01*
X297190Y337047D01*
X296330Y334969D01*
X296036Y332740D01*
X296330Y330511D01*
X297190Y328433D01*
X298559Y326649D01*
X300343Y325280D01*
X302421Y324420D01*
X304650Y324126D01*
X317650D01*
X319879Y324420D01*
X321957Y325280D01*
X323741Y326649D01*
X325110Y328433D01*
X325970Y330511D01*
X326264Y332740D01*
X325970Y334969D01*
X325110Y337047D01*
X323741Y338831D01*
X321957Y340200D01*
X320770Y340691D01*
X321023Y341961D01*
X338210D01*
X340177Y342352D01*
X341844Y343466D01*
X353918Y355541D01*
X550244D01*
X550574Y355320D01*
X551190Y353833D01*
X552559Y352049D01*
X554343Y350680D01*
X556421Y349820D01*
X558650Y349526D01*
X571650D01*
X573879Y349820D01*
X575957Y350680D01*
X577741Y352049D01*
X579110Y353833D01*
X579970Y355911D01*
X580264Y358140D01*
X579970Y360369D01*
X579110Y362447D01*
X577741Y364231D01*
X575957Y365600D01*
X573879Y366460D01*
X571650Y366754D01*
X558650D01*
X556421Y366460D01*
X554343Y365600D01*
X554133Y365438D01*
X552221Y365819D01*
X351790D01*
X349823Y365428D01*
X348156Y364314D01*
X336081Y352239D01*
X325322D01*
X324760Y353378D01*
X325110Y353833D01*
X325970Y355911D01*
X326264Y358140D01*
X325970Y360369D01*
X325110Y362447D01*
X324760Y362902D01*
X325322Y364041D01*
X331080D01*
X333046Y364432D01*
X334714Y365546D01*
X347569Y378401D01*
X551829D01*
X552559Y377449D01*
X554343Y376080D01*
X556421Y375220D01*
X558650Y374926D01*
X571650D01*
X573879Y375220D01*
X575957Y376080D01*
X577741Y377449D01*
X579110Y379233D01*
X579970Y381311D01*
X580264Y383540D01*
X579970Y385769D01*
X579110Y387847D01*
X577741Y389631D01*
X575957Y391000D01*
X573879Y391860D01*
X571650Y392154D01*
X558650D01*
X556421Y391860D01*
X554343Y391000D01*
X552559Y389631D01*
X551829Y388679D01*
X345440D01*
X343474Y388288D01*
X341806Y387174D01*
X328951Y374319D01*
X321023D01*
X320770Y375589D01*
X321957Y376080D01*
X323741Y377449D01*
X325110Y379233D01*
X325970Y381311D01*
X326264Y383540D01*
X325970Y385769D01*
X325110Y387847D01*
X324760Y388302D01*
X325322Y389441D01*
X329810D01*
X331777Y389832D01*
X333444Y390946D01*
X346298Y403801D01*
X551829D01*
X552559Y402849D01*
X554343Y401480D01*
X556421Y400620D01*
X558650Y400326D01*
X571650D01*
X573879Y400620D01*
X575957Y401480D01*
X577741Y402849D01*
X579110Y404633D01*
X579970Y406711D01*
X580264Y408940D01*
X579970Y411169D01*
X579110Y413247D01*
X577741Y415031D01*
X575957Y416400D01*
X573879Y417260D01*
X571650Y417554D01*
X558650D01*
X556421Y417260D01*
X554343Y416400D01*
X552559Y415031D01*
X551829Y414079D01*
X344170D01*
X342203Y413688D01*
X340536Y412574D01*
X327682Y399719D01*
X321023D01*
X320770Y400989D01*
X321957Y401480D01*
X323741Y402849D01*
X325110Y404633D01*
X325970Y406711D01*
X326264Y408940D01*
X325970Y411169D01*
X325110Y413247D01*
X323741Y415031D01*
X321957Y416400D01*
X319879Y417260D01*
X317650Y417554D01*
X306791D01*
X295895Y428450D01*
Y429842D01*
X297165Y430094D01*
X297190Y430033D01*
X298559Y428249D01*
X300343Y426880D01*
X302421Y426020D01*
X304650Y425726D01*
X317650D01*
X319879Y426020D01*
X321957Y426880D01*
X323741Y428249D01*
X325110Y430033D01*
X325970Y432111D01*
X326264Y434340D01*
X325970Y436569D01*
X325110Y438647D01*
X323741Y440431D01*
X321957Y441800D01*
X319879Y442660D01*
X317650Y442954D01*
X304650D01*
X302421Y442660D01*
X300343Y441800D01*
X298559Y440431D01*
X297190Y438647D01*
X297165Y438586D01*
X295895Y438838D01*
Y455242D01*
X297165Y455494D01*
X297190Y455433D01*
X298559Y453649D01*
X300343Y452280D01*
X302421Y451420D01*
X304650Y451126D01*
X317650D01*
X319879Y451420D01*
X321957Y452280D01*
X323741Y453649D01*
X325110Y455433D01*
X325970Y457511D01*
X326264Y459740D01*
X325970Y461969D01*
X325110Y464047D01*
X323741Y465831D01*
X321957Y467200D01*
X319879Y468060D01*
X317650Y468354D01*
X304650D01*
X302421Y468060D01*
X300343Y467200D01*
X298559Y465831D01*
X297190Y464047D01*
X297165Y463986D01*
X295895Y464238D01*
Y480642D01*
X297165Y480894D01*
X297190Y480833D01*
X298559Y479049D01*
X300343Y477680D01*
X302421Y476820D01*
X304650Y476526D01*
X317650D01*
X319879Y476820D01*
X321957Y477680D01*
X323741Y479049D01*
X325110Y480833D01*
X325970Y482911D01*
X326264Y485140D01*
X325970Y487369D01*
X325110Y489447D01*
X323741Y491231D01*
X321957Y492600D01*
X319879Y493460D01*
X317650Y493754D01*
X304650D01*
X302421Y493460D01*
X300343Y492600D01*
X298559Y491231D01*
X297190Y489447D01*
X297165Y489386D01*
X295895Y489638D01*
Y506042D01*
X297165Y506294D01*
X297190Y506233D01*
X298559Y504449D01*
X300343Y503080D01*
X302421Y502220D01*
X304650Y501926D01*
X317650D01*
X319879Y502220D01*
X321957Y503080D01*
X323741Y504449D01*
X325110Y506233D01*
X325970Y508311D01*
X326264Y510540D01*
X325970Y512769D01*
X325110Y514847D01*
X323741Y516631D01*
X321957Y518000D01*
X319879Y518860D01*
X317650Y519154D01*
X304650D01*
X302421Y518860D01*
X300343Y518000D01*
X298559Y516631D01*
X297190Y514847D01*
X297165Y514786D01*
X295895Y515038D01*
Y526219D01*
X296110Y527400D01*
X297165Y527400D01*
X326190D01*
Y544480D01*
X297707D01*
X297181Y545750D01*
X310265Y558833D01*
X557119D01*
X570226Y545727D01*
X569740Y544554D01*
X558650D01*
X556421Y544260D01*
X554343Y543400D01*
X552559Y542031D01*
X551190Y540247D01*
X550330Y538169D01*
X550036Y535940D01*
X550330Y533711D01*
X551190Y531633D01*
X552559Y529849D01*
X554343Y528480D01*
X556421Y527620D01*
X558650Y527326D01*
X571650D01*
X573879Y527620D01*
X575957Y528480D01*
X577741Y529849D01*
X579110Y531633D01*
X579970Y533711D01*
X580047Y534295D01*
X581250Y534703D01*
X594393Y521559D01*
Y440690D01*
X594738Y438069D01*
X595750Y435627D01*
X597359Y433529D01*
X599457Y431920D01*
X601899Y430908D01*
X604520Y430563D01*
X607141Y430908D01*
X609583Y431920D01*
X611681Y433529D01*
X613290Y435627D01*
X614302Y438069D01*
X614647Y440690D01*
Y525754D01*
X614647Y525754D01*
X614302Y528375D01*
X613290Y530817D01*
X611681Y532915D01*
X611680Y532915D01*
X569252Y575343D01*
X569778Y576613D01*
X573655D01*
X617475Y532794D01*
Y460788D01*
X617475Y460788D01*
X617820Y458167D01*
X618832Y455725D01*
X620441Y453627D01*
X666783Y407285D01*
Y295910D01*
X666783Y295910D01*
X667128Y293289D01*
X668140Y290847D01*
X669749Y288749D01*
X693879Y264619D01*
X695977Y263010D01*
X698419Y261998D01*
X701040Y261653D01*
X703661Y261998D01*
X706103Y263010D01*
X708201Y264619D01*
X709810Y266717D01*
X710822Y269159D01*
X711167Y271780D01*
X710822Y274401D01*
X709810Y276843D01*
X708201Y278941D01*
X687037Y300105D01*
Y411480D01*
X687037Y411480D01*
X686692Y414101D01*
X685680Y416543D01*
X684071Y418641D01*
X684071Y418641D01*
X637729Y464983D01*
Y536988D01*
X637729Y536988D01*
X637383Y539609D01*
X636372Y542051D01*
X634763Y544149D01*
X634762Y544149D01*
X585011Y593901D01*
X582913Y595510D01*
X580471Y596522D01*
X580166Y596562D01*
X577850Y596867D01*
D02*
G37*
G36*
X1062814Y639640D02*
X1058086D01*
X1053416Y638900D01*
X1048919Y637439D01*
X1044706Y635293D01*
X1040880Y632513D01*
X1037537Y629170D01*
X1034758Y625344D01*
X1032611Y621131D01*
X1031150Y616634D01*
X1030410Y611964D01*
Y607236D01*
X1031150Y602566D01*
X1032611Y598069D01*
X1034758Y593856D01*
X1037537Y590030D01*
X1040880Y586687D01*
X1044706Y583908D01*
X1048919Y581761D01*
X1053416Y580300D01*
X1058086Y579560D01*
X1062814D01*
X1067484Y580300D01*
X1071981Y581761D01*
X1076194Y583908D01*
X1080020Y586687D01*
X1083363Y590030D01*
X1086143Y593856D01*
X1088289Y598069D01*
X1089750Y602566D01*
X1090490Y607236D01*
Y611964D01*
X1089750Y616634D01*
X1088289Y621131D01*
X1086143Y625344D01*
X1083363Y629170D01*
X1080020Y632513D01*
X1076194Y635293D01*
X1071981Y637439D01*
X1067484Y638900D01*
X1062814Y639640D01*
D02*
G37*
G36*
X37924Y637100D02*
X33196D01*
X28526Y636360D01*
X24029Y634899D01*
X19816Y632752D01*
X15990Y629973D01*
X12647Y626630D01*
X9868Y622804D01*
X7721Y618591D01*
X6260Y614094D01*
X5520Y609424D01*
Y604696D01*
X6260Y600026D01*
X7721Y595529D01*
X9868Y591316D01*
X12647Y587490D01*
X15990Y584147D01*
X19816Y581367D01*
X24029Y579221D01*
X28526Y577760D01*
X33196Y577020D01*
X37924D01*
X42594Y577760D01*
X47091Y579221D01*
X51304Y581367D01*
X55130Y584147D01*
X58473Y587490D01*
X61252Y591316D01*
X63399Y595529D01*
X64860Y600026D01*
X65600Y604696D01*
Y609424D01*
X64860Y614094D01*
X63399Y618591D01*
X61252Y622804D01*
X58473Y626630D01*
X55130Y629973D01*
X51304Y632752D01*
X47091Y634899D01*
X42594Y636360D01*
X37924Y637100D01*
D02*
G37*
G36*
X967180Y592703D02*
X947180D01*
X944232Y592412D01*
X941397Y591552D01*
X938784Y590156D01*
X936494Y588276D01*
X934614Y585986D01*
X933218Y583373D01*
X932358Y580538D01*
X932067Y577590D01*
X932358Y574642D01*
X933218Y571807D01*
X934614Y569194D01*
X936494Y566904D01*
X938784Y565024D01*
X941397Y563628D01*
X944232Y562768D01*
X947180Y562477D01*
X967180D01*
X970128Y562768D01*
X972963Y563628D01*
X975576Y565024D01*
X977866Y566904D01*
X979746Y569194D01*
X981142Y571807D01*
X982002Y574642D01*
X982293Y577590D01*
X982002Y580538D01*
X981142Y583373D01*
X979746Y585986D01*
X977866Y588276D01*
X975576Y590156D01*
X972963Y591552D01*
X970128Y592412D01*
X967180Y592703D01*
D02*
G37*
G36*
X740410Y565230D02*
Y560070D01*
X745570D01*
X745234Y561324D01*
X744373Y562816D01*
X743156Y564033D01*
X741664Y564894D01*
X740410Y565230D01*
D02*
G37*
G36*
X737870D02*
X736616Y564894D01*
X735124Y564033D01*
X733907Y562816D01*
X733046Y561324D01*
X732710Y560070D01*
X737870D01*
Y565230D01*
D02*
G37*
G36*
X712470D02*
Y560070D01*
X717630D01*
X717294Y561324D01*
X716433Y562816D01*
X715216Y564033D01*
X713724Y564894D01*
X712470Y565230D01*
D02*
G37*
G36*
X709930D02*
X708676Y564894D01*
X707184Y564033D01*
X705967Y562816D01*
X705106Y561324D01*
X704770Y560070D01*
X709930D01*
Y565230D01*
D02*
G37*
G36*
X683260D02*
Y560070D01*
X688420D01*
X688084Y561324D01*
X687223Y562816D01*
X686006Y564033D01*
X684514Y564894D01*
X683260Y565230D01*
D02*
G37*
G36*
X680720D02*
X679466Y564894D01*
X677974Y564033D01*
X676757Y562816D01*
X675896Y561324D01*
X675560Y560070D01*
X680720D01*
Y565230D01*
D02*
G37*
G36*
X745570Y557530D02*
X740410D01*
Y552370D01*
X741664Y552706D01*
X743156Y553567D01*
X744373Y554784D01*
X745234Y556276D01*
X745570Y557530D01*
D02*
G37*
G36*
X737870D02*
X732710D01*
X733046Y556276D01*
X733907Y554784D01*
X735124Y553567D01*
X736616Y552706D01*
X737870Y552370D01*
Y557530D01*
D02*
G37*
G36*
X717630D02*
X712470D01*
Y552370D01*
X713724Y552706D01*
X715216Y553567D01*
X716433Y554784D01*
X717294Y556276D01*
X717630Y557530D01*
D02*
G37*
G36*
X709930D02*
X704770D01*
X705106Y556276D01*
X705967Y554784D01*
X707184Y553567D01*
X708676Y552706D01*
X709930Y552370D01*
Y557530D01*
D02*
G37*
G36*
X688420D02*
X683260D01*
Y552370D01*
X684514Y552706D01*
X686006Y553567D01*
X687223Y554784D01*
X688084Y556276D01*
X688420Y557530D01*
D02*
G37*
G36*
X680720D02*
X675560D01*
X675896Y556276D01*
X676757Y554784D01*
X677974Y553567D01*
X679466Y552706D01*
X680720Y552370D01*
Y557530D01*
D02*
G37*
G36*
X740410Y549990D02*
Y544830D01*
X745570D01*
X745234Y546084D01*
X744373Y547576D01*
X743156Y548793D01*
X741664Y549654D01*
X740410Y549990D01*
D02*
G37*
G36*
X737870D02*
X736616Y549654D01*
X735124Y548793D01*
X733907Y547576D01*
X733046Y546084D01*
X732710Y544830D01*
X737870D01*
Y549990D01*
D02*
G37*
G36*
X712470D02*
Y544830D01*
X717630D01*
X717294Y546084D01*
X716433Y547576D01*
X715216Y548793D01*
X713724Y549654D01*
X712470Y549990D01*
D02*
G37*
G36*
X709930D02*
X708676Y549654D01*
X707184Y548793D01*
X705967Y547576D01*
X705106Y546084D01*
X704770Y544830D01*
X709930D01*
Y549990D01*
D02*
G37*
G36*
X683260Y548720D02*
Y543560D01*
X688420D01*
X688084Y544814D01*
X687223Y546306D01*
X686006Y547523D01*
X684514Y548384D01*
X683260Y548720D01*
D02*
G37*
G36*
X680720D02*
X679466Y548384D01*
X677974Y547523D01*
X676757Y546306D01*
X675896Y544814D01*
X675560Y543560D01*
X680720D01*
Y548720D01*
D02*
G37*
G36*
X745570Y542290D02*
X740410D01*
Y537130D01*
X741664Y537466D01*
X743156Y538327D01*
X744373Y539544D01*
X745234Y541036D01*
X745570Y542290D01*
D02*
G37*
G36*
X737870D02*
X732710D01*
X733046Y541036D01*
X733907Y539544D01*
X735124Y538327D01*
X736616Y537466D01*
X737870Y537130D01*
Y542290D01*
D02*
G37*
G36*
X717630D02*
X712470D01*
Y537130D01*
X713724Y537466D01*
X715216Y538327D01*
X716433Y539544D01*
X717294Y541036D01*
X717630Y542290D01*
D02*
G37*
G36*
X709930D02*
X704770D01*
X705106Y541036D01*
X705967Y539544D01*
X707184Y538327D01*
X708676Y537466D01*
X709930Y537130D01*
Y542290D01*
D02*
G37*
G36*
X688420Y541020D02*
X683260D01*
Y535860D01*
X684514Y536196D01*
X686006Y537057D01*
X687223Y538274D01*
X688084Y539766D01*
X688420Y541020D01*
D02*
G37*
G36*
X680720D02*
X675560D01*
X675896Y539766D01*
X676757Y538274D01*
X677974Y537057D01*
X679466Y536196D01*
X680720Y535860D01*
Y541020D01*
D02*
G37*
G36*
X712470Y533480D02*
Y528320D01*
X717630D01*
X717294Y529574D01*
X716433Y531066D01*
X715216Y532283D01*
X713724Y533144D01*
X712470Y533480D01*
D02*
G37*
G36*
X709930D02*
X708676Y533144D01*
X707184Y532283D01*
X705967Y531066D01*
X705106Y529574D01*
X704770Y528320D01*
X709930D01*
Y533480D01*
D02*
G37*
G36*
X683260D02*
Y528320D01*
X688420D01*
X688084Y529574D01*
X687223Y531066D01*
X686006Y532283D01*
X684514Y533144D01*
X683260Y533480D01*
D02*
G37*
G36*
X680720D02*
X679466Y533144D01*
X677974Y532283D01*
X676757Y531066D01*
X675896Y529574D01*
X675560Y528320D01*
X680720D01*
Y533480D01*
D02*
G37*
G36*
X741680Y532210D02*
Y527050D01*
X746840D01*
X746504Y528304D01*
X745643Y529796D01*
X744426Y531013D01*
X742934Y531874D01*
X741680Y532210D01*
D02*
G37*
G36*
X739140D02*
X737886Y531874D01*
X736394Y531013D01*
X735177Y529796D01*
X734316Y528304D01*
X733980Y527050D01*
X739140D01*
Y532210D01*
D02*
G37*
G36*
X717630Y525780D02*
X712470D01*
Y520620D01*
X713724Y520956D01*
X715216Y521817D01*
X716433Y523034D01*
X717294Y524526D01*
X717630Y525780D01*
D02*
G37*
G36*
X709930D02*
X704770D01*
X705106Y524526D01*
X705967Y523034D01*
X707184Y521817D01*
X708676Y520956D01*
X709930Y520620D01*
Y525780D01*
D02*
G37*
G36*
X688420D02*
X683260D01*
Y520620D01*
X684514Y520956D01*
X686006Y521817D01*
X687223Y523034D01*
X688084Y524526D01*
X688420Y525780D01*
D02*
G37*
G36*
X680720D02*
X675560D01*
X675896Y524526D01*
X676757Y523034D01*
X677974Y521817D01*
X679466Y520956D01*
X680720Y520620D01*
Y525780D01*
D02*
G37*
G36*
X143370Y536900D02*
X141110D01*
X138928Y536315D01*
X136972Y535186D01*
X135374Y533588D01*
X134245Y531632D01*
X133660Y529450D01*
Y527190D01*
X134245Y525008D01*
X135374Y523052D01*
X136972Y521454D01*
X138928Y520325D01*
X141110Y519740D01*
X143370D01*
X145552Y520325D01*
X147508Y521454D01*
X149106Y523052D01*
X150235Y525008D01*
X150820Y527190D01*
Y529450D01*
X150235Y531632D01*
X149106Y533588D01*
X147508Y535186D01*
X145552Y536315D01*
X143370Y536900D01*
D02*
G37*
G36*
X746840Y524510D02*
X741680D01*
Y519350D01*
X742934Y519686D01*
X744426Y520547D01*
X745643Y521764D01*
X746504Y523256D01*
X746840Y524510D01*
D02*
G37*
G36*
X739140D02*
X733980D01*
X734316Y523256D01*
X735177Y521764D01*
X736394Y520547D01*
X737886Y519686D01*
X739140Y519350D01*
Y524510D01*
D02*
G37*
G36*
X992180Y554703D02*
X989232Y554412D01*
X986397Y553552D01*
X983784Y552156D01*
X981494Y550276D01*
X979614Y547986D01*
X978218Y545373D01*
X977358Y542538D01*
X977067Y539590D01*
Y519590D01*
X977358Y516642D01*
X978218Y513807D01*
X979614Y511194D01*
X981494Y508904D01*
X983784Y507024D01*
X986397Y505628D01*
X989232Y504768D01*
X992180Y504477D01*
X995128Y504768D01*
X997963Y505628D01*
X1000576Y507024D01*
X1002866Y508904D01*
X1004746Y511194D01*
X1006142Y513807D01*
X1007002Y516642D01*
X1007293Y519590D01*
Y539590D01*
X1007002Y542538D01*
X1006142Y545373D01*
X1004746Y547986D01*
X1002866Y550276D01*
X1000576Y552156D01*
X997963Y553552D01*
X995128Y554412D01*
X992180Y554703D01*
D02*
G37*
G36*
X932180Y557203D02*
X929232Y556912D01*
X926397Y556052D01*
X923784Y554656D01*
X921494Y552776D01*
X919614Y550486D01*
X918218Y547873D01*
X917358Y545038D01*
X917067Y542090D01*
Y517090D01*
X917358Y514142D01*
X918218Y511307D01*
X919614Y508694D01*
X921494Y506404D01*
X923784Y504524D01*
X926397Y503128D01*
X929232Y502268D01*
X932180Y501977D01*
X935128Y502268D01*
X937963Y503128D01*
X940576Y504524D01*
X942866Y506404D01*
X944746Y508694D01*
X946142Y511307D01*
X947002Y514142D01*
X947293Y517090D01*
Y542090D01*
X947002Y545038D01*
X946142Y547873D01*
X944746Y550486D01*
X942866Y552776D01*
X940576Y554656D01*
X937963Y556052D01*
X935128Y556912D01*
X932180Y557203D01*
D02*
G37*
G36*
X571650Y519154D02*
X558650D01*
X556421Y518860D01*
X554343Y518000D01*
X552559Y516631D01*
X551190Y514847D01*
X550330Y512769D01*
X550036Y510540D01*
X550330Y508311D01*
X551190Y506233D01*
X552559Y504449D01*
X554343Y503080D01*
X556421Y502220D01*
X558650Y501926D01*
X571650D01*
X573879Y502220D01*
X575957Y503080D01*
X577741Y504449D01*
X579110Y506233D01*
X579970Y508311D01*
X580264Y510540D01*
X579970Y512769D01*
X579110Y514847D01*
X577741Y516631D01*
X575957Y518000D01*
X573879Y518860D01*
X571650Y519154D01*
D02*
G37*
G36*
X212090Y577835D02*
X96840D01*
X94872Y577576D01*
X93038Y576816D01*
X91462Y575608D01*
X53322Y537467D01*
X52568Y537265D01*
X50612Y536136D01*
X49014Y534538D01*
X47885Y532582D01*
X47300Y530400D01*
Y528140D01*
X47885Y525958D01*
X49014Y524002D01*
X50612Y522404D01*
X52568Y521275D01*
X54750Y520690D01*
X54886D01*
X55371Y519517D01*
X53322Y517467D01*
X52568Y517265D01*
X50612Y516136D01*
X49014Y514538D01*
X47885Y512582D01*
X47300Y510400D01*
Y508140D01*
X47885Y505958D01*
X49014Y504002D01*
X50612Y502404D01*
X52568Y501275D01*
X54750Y500690D01*
X57010D01*
X59192Y501275D01*
X61148Y502404D01*
X62746Y504002D01*
X63875Y505958D01*
X64077Y506712D01*
X104750Y547385D01*
X211325D01*
X211819Y547450D01*
X212317D01*
X212799Y547579D01*
X213293Y547644D01*
X213753Y547835D01*
X214235Y547964D01*
X214667Y548213D01*
X215127Y548404D01*
X215522Y548707D01*
X215954Y548956D01*
X216307Y549309D01*
X216702Y549612D01*
X217006Y550008D01*
X217358Y550360D01*
X217607Y550792D01*
X217911Y551188D01*
X218101Y551648D01*
X218351Y552080D01*
X218480Y552561D01*
X218670Y553022D01*
X218736Y553516D01*
X218864Y553997D01*
Y554496D01*
X218930Y554990D01*
X218864Y555484D01*
Y555983D01*
X218736Y556464D01*
X218670Y556958D01*
X218480Y557419D01*
X218351Y557900D01*
X218101Y558332D01*
X217911Y558792D01*
X217607Y559188D01*
X217358Y559620D01*
X217006Y559972D01*
X216702Y560368D01*
X216307Y560671D01*
X215954Y561023D01*
X215522Y561273D01*
X215127Y561576D01*
X214673Y561764D01*
X214664Y561786D01*
X214583Y562511D01*
X214738Y563133D01*
X215000Y563204D01*
X215432Y563453D01*
X215893Y563644D01*
X216288Y563947D01*
X216720Y564197D01*
X217072Y564549D01*
X217468Y564852D01*
X217771Y565248D01*
X218123Y565600D01*
X218373Y566032D01*
X218676Y566427D01*
X218867Y566888D01*
X219116Y567320D01*
X219245Y567801D01*
X219436Y568262D01*
X219501Y568756D01*
X219630Y569237D01*
Y569736D01*
X219695Y570230D01*
X219630Y570724D01*
Y571223D01*
X219501Y571704D01*
X219436Y572198D01*
X219245Y572659D01*
X219116Y573140D01*
X218867Y573572D01*
X218676Y574033D01*
X218373Y574428D01*
X218123Y574860D01*
X217771Y575212D01*
X217468Y575608D01*
X217072Y575911D01*
X216720Y576264D01*
X216288Y576513D01*
X215893Y576816D01*
X215432Y577007D01*
X215000Y577256D01*
X214519Y577385D01*
X214058Y577576D01*
X213564Y577641D01*
X213083Y577770D01*
X212584D01*
X212090Y577835D01*
D02*
G37*
G36*
X143370Y516900D02*
X141110D01*
X138928Y516315D01*
X136972Y515186D01*
X135374Y513588D01*
X134245Y511632D01*
X133660Y509450D01*
Y507190D01*
X134245Y505008D01*
X135374Y503052D01*
X136972Y501454D01*
X138928Y500325D01*
X141110Y499740D01*
X143370D01*
X145552Y500325D01*
X147508Y501454D01*
X149106Y503052D01*
X150235Y505008D01*
X150820Y507190D01*
Y509450D01*
X150235Y511632D01*
X149106Y513588D01*
X147508Y515186D01*
X145552Y516315D01*
X143370Y516900D01*
D02*
G37*
G36*
X57150Y497812D02*
Y490540D01*
X64422D01*
X63875Y492582D01*
X62746Y494538D01*
X61148Y496136D01*
X59192Y497265D01*
X57150Y497812D01*
D02*
G37*
G36*
X54610Y497812D02*
X52568Y497265D01*
X50612Y496136D01*
X49014Y494538D01*
X47885Y492582D01*
X47338Y490540D01*
X54610D01*
Y497812D01*
D02*
G37*
G36*
X143510Y496862D02*
Y489590D01*
X150782D01*
X150235Y491632D01*
X149106Y493588D01*
X147508Y495186D01*
X145552Y496315D01*
X143510Y496862D01*
D02*
G37*
G36*
X140970D02*
X138928Y496315D01*
X136972Y495186D01*
X135374Y493588D01*
X134245Y491632D01*
X133698Y489590D01*
X140970D01*
Y496862D01*
D02*
G37*
G36*
X229870Y496222D02*
X227828Y495675D01*
X225872Y494546D01*
X224274Y492948D01*
X223145Y490992D01*
X222598Y488950D01*
X229870D01*
Y496222D01*
D02*
G37*
G36*
X64422Y488000D02*
X57150D01*
Y480728D01*
X59192Y481275D01*
X61148Y482404D01*
X62746Y484002D01*
X63875Y485958D01*
X64422Y488000D01*
D02*
G37*
G36*
X54610D02*
X47338D01*
X47885Y485958D01*
X49014Y484002D01*
X50612Y482404D01*
X52568Y481275D01*
X54610Y480728D01*
Y488000D01*
D02*
G37*
G36*
X140970Y487050D02*
X133698D01*
X134245Y485008D01*
X135374Y483052D01*
X136972Y481454D01*
X138928Y480325D01*
X140970Y479778D01*
Y487050D01*
D02*
G37*
G36*
X150782D02*
X143510D01*
Y479778D01*
X145552Y480325D01*
X147508Y481454D01*
X149106Y483052D01*
X150235Y485008D01*
X150782Y487050D01*
D02*
G37*
G36*
X571650Y493754D02*
X558650D01*
X556421Y493460D01*
X554343Y492600D01*
X552559Y491231D01*
X551190Y489447D01*
X550330Y487369D01*
X550036Y485140D01*
X550330Y482911D01*
X551190Y480833D01*
X552559Y479049D01*
X554343Y477680D01*
X556421Y476820D01*
X558650Y476526D01*
X571650D01*
X573879Y476820D01*
X575957Y477680D01*
X577741Y479049D01*
X579110Y480833D01*
X579970Y482911D01*
X580264Y485140D01*
X579970Y487369D01*
X579110Y489447D01*
X577741Y491231D01*
X575957Y492600D01*
X573879Y493460D01*
X571650Y493754D01*
D02*
G37*
G36*
X64460Y477850D02*
X47300D01*
Y460690D01*
X64460D01*
Y477850D01*
D02*
G37*
G36*
X571650Y468354D02*
X558650D01*
X556421Y468060D01*
X554343Y467200D01*
X552559Y465831D01*
X551190Y464047D01*
X550330Y461969D01*
X550036Y459740D01*
X550330Y457511D01*
X551190Y455433D01*
X552559Y453649D01*
X554343Y452280D01*
X556421Y451420D01*
X558650Y451126D01*
X571650D01*
X573879Y451420D01*
X575957Y452280D01*
X577741Y453649D01*
X579110Y455433D01*
X579970Y457511D01*
X580264Y459740D01*
X579970Y461969D01*
X579110Y464047D01*
X577741Y465831D01*
X575957Y467200D01*
X573879Y468060D01*
X571650Y468354D01*
D02*
G37*
G36*
Y442954D02*
X558650D01*
X556421Y442660D01*
X554343Y441800D01*
X552559Y440431D01*
X551190Y438647D01*
X550330Y436569D01*
X550036Y434340D01*
X550330Y432111D01*
X551190Y430033D01*
X552559Y428249D01*
X554343Y426880D01*
X556421Y426020D01*
X558650Y425726D01*
X571650D01*
X573879Y426020D01*
X575957Y426880D01*
X577741Y428249D01*
X579110Y430033D01*
X579970Y432111D01*
X580264Y434340D01*
X579970Y436569D01*
X579110Y438647D01*
X577741Y440431D01*
X575957Y441800D01*
X573879Y442660D01*
X571650Y442954D01*
D02*
G37*
G36*
X1042781Y452830D02*
X1039819D01*
X1036913Y452252D01*
X1034176Y451118D01*
X1031713Y449472D01*
X1029618Y447377D01*
X1027972Y444914D01*
X1026838Y442177D01*
X1026260Y439271D01*
Y436309D01*
X1026838Y433403D01*
X1027972Y430666D01*
X1029618Y428203D01*
X1031713Y426108D01*
X1034176Y424462D01*
X1036913Y423328D01*
X1039819Y422750D01*
X1042781D01*
X1045687Y423328D01*
X1048424Y424462D01*
X1050888Y426108D01*
X1052982Y428203D01*
X1054628Y430666D01*
X1055762Y433403D01*
X1056340Y436309D01*
Y439271D01*
X1055762Y442177D01*
X1054628Y444914D01*
X1052982Y447377D01*
X1050888Y449472D01*
X1048424Y451118D01*
X1045687Y452252D01*
X1042781Y452830D01*
D02*
G37*
G36*
X942781D02*
X939819D01*
X936913Y452252D01*
X934176Y451118D01*
X931713Y449472D01*
X929618Y447377D01*
X927972Y444914D01*
X926838Y442177D01*
X926260Y439271D01*
Y436309D01*
X926838Y433403D01*
X927972Y430666D01*
X929618Y428203D01*
X931713Y426108D01*
X934176Y424462D01*
X936913Y423328D01*
X939819Y422750D01*
X942781D01*
X945687Y423328D01*
X948424Y424462D01*
X950888Y426108D01*
X952982Y428203D01*
X954628Y430666D01*
X955762Y433403D01*
X956340Y436309D01*
Y439271D01*
X955762Y442177D01*
X954628Y444914D01*
X952982Y447377D01*
X950888Y449472D01*
X948424Y451118D01*
X945687Y452252D01*
X942781Y452830D01*
D02*
G37*
G36*
X1042781Y407830D02*
X1042570D01*
Y394060D01*
X1056340D01*
Y394271D01*
X1055762Y397177D01*
X1054628Y399914D01*
X1052982Y402377D01*
X1050888Y404472D01*
X1048424Y406118D01*
X1045687Y407252D01*
X1042781Y407830D01*
D02*
G37*
G36*
X1040030D02*
X1039819D01*
X1036913Y407252D01*
X1034176Y406118D01*
X1031713Y404472D01*
X1029618Y402377D01*
X1027972Y399914D01*
X1026838Y397177D01*
X1026260Y394271D01*
Y394060D01*
X1040030D01*
Y407830D01*
D02*
G37*
G36*
X1056340Y391520D02*
X1042570D01*
Y377750D01*
X1042781D01*
X1045687Y378328D01*
X1048424Y379462D01*
X1050888Y381108D01*
X1052982Y383203D01*
X1054628Y385666D01*
X1055762Y388403D01*
X1056340Y391309D01*
Y391520D01*
D02*
G37*
G36*
X1040030D02*
X1026260D01*
Y391309D01*
X1026838Y388403D01*
X1027972Y385666D01*
X1029618Y383203D01*
X1031713Y381108D01*
X1034176Y379462D01*
X1036913Y378328D01*
X1039819Y377750D01*
X1040030D01*
Y391520D01*
D02*
G37*
G36*
X241418Y377570D02*
X241300D01*
Y368300D01*
X250570D01*
Y368418D01*
X249852Y371098D01*
X248464Y373502D01*
X246502Y375464D01*
X244098Y376852D01*
X241418Y377570D01*
D02*
G37*
G36*
X238760D02*
X238642D01*
X235962Y376852D01*
X233558Y375464D01*
X231596Y373502D01*
X230208Y371098D01*
X229490Y368418D01*
Y368300D01*
X238760D01*
Y377570D01*
D02*
G37*
G36*
X250570Y365760D02*
X241300D01*
Y356490D01*
X241418D01*
X244098Y357208D01*
X246502Y358596D01*
X248464Y360558D01*
X249852Y362962D01*
X250570Y365642D01*
Y365760D01*
D02*
G37*
G36*
X238760D02*
X229490D01*
Y365642D01*
X230208Y362962D01*
X231596Y360558D01*
X233558Y358596D01*
X235962Y357208D01*
X238642Y356490D01*
X238760D01*
Y365760D01*
D02*
G37*
G36*
X54610Y350492D02*
Y343220D01*
X61882D01*
X61335Y345262D01*
X60206Y347218D01*
X58608Y348816D01*
X56652Y349945D01*
X54610Y350492D01*
D02*
G37*
G36*
X52070D02*
X50028Y349945D01*
X48072Y348816D01*
X46474Y347218D01*
X45345Y345262D01*
X44798Y343220D01*
X52070D01*
Y350492D01*
D02*
G37*
G36*
X142240Y349542D02*
X140198Y348995D01*
X138242Y347866D01*
X136644Y346268D01*
X135515Y344312D01*
X134968Y342270D01*
X142240D01*
Y349542D01*
D02*
G37*
G36*
X61882Y340680D02*
X54610D01*
Y333408D01*
X56652Y333955D01*
X58608Y335084D01*
X60206Y336682D01*
X61335Y338638D01*
X61882Y340680D01*
D02*
G37*
G36*
X52070D02*
X44798D01*
X45345Y338638D01*
X46474Y336682D01*
X48072Y335084D01*
X50028Y333955D01*
X52070Y333408D01*
Y340680D01*
D02*
G37*
G36*
X571650Y341354D02*
X558650D01*
X556421Y341060D01*
X554343Y340200D01*
X552559Y338831D01*
X551190Y337047D01*
X550330Y334969D01*
X550036Y332740D01*
X550330Y330511D01*
X551190Y328433D01*
X552559Y326649D01*
X554343Y325280D01*
X556421Y324420D01*
X558650Y324126D01*
X571650D01*
X573879Y324420D01*
X575957Y325280D01*
X577741Y326649D01*
X579110Y328433D01*
X579970Y330511D01*
X580264Y332740D01*
X579970Y334969D01*
X579110Y337047D01*
X577741Y338831D01*
X575957Y340200D01*
X573879Y341060D01*
X571650Y341354D01*
D02*
G37*
G36*
Y315954D02*
X558650D01*
X556421Y315660D01*
X554343Y314800D01*
X552559Y313431D01*
X551190Y311647D01*
X550330Y309569D01*
X550036Y307340D01*
X550330Y305111D01*
X551190Y303033D01*
X552559Y301249D01*
X554343Y299880D01*
X556421Y299020D01*
X558650Y298726D01*
X571650D01*
X573879Y299020D01*
X575957Y299880D01*
X577741Y301249D01*
X579110Y303033D01*
X579970Y305111D01*
X580264Y307340D01*
X579970Y309569D01*
X579110Y311647D01*
X577741Y313431D01*
X575957Y314800D01*
X573879Y315660D01*
X571650Y315954D01*
D02*
G37*
G36*
X317650D02*
X304650D01*
X302421Y315660D01*
X300343Y314800D01*
X298559Y313431D01*
X297190Y311647D01*
X296330Y309569D01*
X296036Y307340D01*
X296330Y305111D01*
X297190Y303033D01*
X298559Y301249D01*
X300343Y299880D01*
X302421Y299020D01*
X304650Y298726D01*
X317650D01*
X319879Y299020D01*
X321957Y299880D01*
X323741Y301249D01*
X325110Y303033D01*
X325970Y305111D01*
X326264Y307340D01*
X325970Y309569D01*
X325110Y311647D01*
X323741Y313431D01*
X321957Y314800D01*
X319879Y315660D01*
X317650Y315954D01*
D02*
G37*
G36*
X715010Y332635D02*
X714516Y332570D01*
X714017D01*
X713536Y332441D01*
X713042Y332376D01*
X712581Y332185D01*
X712100Y332056D01*
X711668Y331807D01*
X711208Y331616D01*
X710812Y331313D01*
X710380Y331063D01*
X710028Y330711D01*
X709632Y330408D01*
X709329Y330012D01*
X708977Y329660D01*
X708727Y329228D01*
X708424Y328833D01*
X708233Y328372D01*
X707984Y327940D01*
X707855Y327459D01*
X707664Y326998D01*
X707599Y326504D01*
X707470Y326023D01*
Y325524D01*
X707405Y325030D01*
X707470Y324536D01*
Y324037D01*
X707599Y323556D01*
X707664Y323062D01*
X707855Y322601D01*
X707984Y322120D01*
X708233Y321688D01*
X708424Y321227D01*
X708727Y320832D01*
X708977Y320400D01*
X709329Y320048D01*
X709632Y319652D01*
X730265Y299020D01*
Y298450D01*
X730330Y297956D01*
Y297457D01*
X730459Y296976D01*
X730524Y296482D01*
X730715Y296021D01*
X730844Y295540D01*
X731093Y295108D01*
X731284Y294648D01*
X731587Y294252D01*
X731836Y293820D01*
X732189Y293468D01*
X732492Y293072D01*
X732888Y292769D01*
X733240Y292416D01*
X733672Y292167D01*
X734068Y291864D01*
X734528Y291673D01*
X734960Y291424D01*
X735441Y291295D01*
X735902Y291104D01*
X736396Y291039D01*
X736877Y290910D01*
X737376D01*
X737870Y290845D01*
X738364Y290910D01*
X738863D01*
X739344Y291039D01*
X739838Y291104D01*
X740299Y291295D01*
X740780Y291424D01*
X741212Y291673D01*
X741673Y291864D01*
X742068Y292167D01*
X742500Y292416D01*
X742852Y292769D01*
X743248Y293072D01*
X743551Y293468D01*
X743904Y293820D01*
X744153Y294252D01*
X744456Y294648D01*
X744647Y295108D01*
X744896Y295540D01*
X745025Y296021D01*
X745216Y296482D01*
X745281Y296976D01*
X745410Y297457D01*
Y297956D01*
X745475Y298450D01*
Y302170D01*
X745216Y304138D01*
X744771Y305213D01*
X744456Y305973D01*
X743248Y307548D01*
X720388Y330408D01*
X719992Y330711D01*
X719640Y331063D01*
X719208Y331313D01*
X718812Y331616D01*
X718352Y331807D01*
X717920Y332056D01*
X717439Y332185D01*
X716978Y332376D01*
X716484Y332441D01*
X716003Y332570D01*
X715504D01*
X715010Y332635D01*
D02*
G37*
G36*
X991000Y289433D02*
X988770D01*
Y275590D01*
X1005988D01*
X1005822Y277268D01*
X1004962Y280103D01*
X1003566Y282716D01*
X1001686Y285006D01*
X999396Y286886D01*
X996783Y288282D01*
X993948Y289142D01*
X991000Y289433D01*
D02*
G37*
G36*
X986230D02*
X984000D01*
X981052Y289142D01*
X978217Y288282D01*
X975604Y286886D01*
X973314Y285006D01*
X971434Y282716D01*
X970038Y280103D01*
X969178Y277268D01*
X969012Y275590D01*
X986230D01*
Y289433D01*
D02*
G37*
G36*
X571650Y290554D02*
X558650D01*
X556421Y290260D01*
X554343Y289400D01*
X552559Y288031D01*
X551190Y286247D01*
X550330Y284169D01*
X550036Y281940D01*
X550330Y279711D01*
X551190Y277633D01*
X552559Y275849D01*
X554343Y274480D01*
X556421Y273620D01*
X558650Y273326D01*
X571650D01*
X573879Y273620D01*
X575957Y274480D01*
X577741Y275849D01*
X579110Y277633D01*
X579970Y279711D01*
X580264Y281940D01*
X579970Y284169D01*
X579110Y286247D01*
X577741Y288031D01*
X575957Y289400D01*
X573879Y290260D01*
X571650Y290554D01*
D02*
G37*
G36*
X317650D02*
X304650D01*
X302421Y290260D01*
X300343Y289400D01*
X298559Y288031D01*
X297190Y286247D01*
X296330Y284169D01*
X296036Y281940D01*
X296330Y279711D01*
X297190Y277633D01*
X298559Y275849D01*
X300343Y274480D01*
X302421Y273620D01*
X304650Y273326D01*
X317650D01*
X319879Y273620D01*
X321957Y274480D01*
X323741Y275849D01*
X325110Y277633D01*
X325970Y279711D01*
X326264Y281940D01*
X325970Y284169D01*
X325110Y286247D01*
X323741Y288031D01*
X321957Y289400D01*
X319879Y290260D01*
X317650Y290554D01*
D02*
G37*
G36*
X1005988Y273050D02*
X988770D01*
Y259207D01*
X991000D01*
X993948Y259498D01*
X996783Y260358D01*
X999396Y261754D01*
X1001686Y263634D01*
X1003566Y265924D01*
X1004962Y268537D01*
X1005822Y271372D01*
X1005988Y273050D01*
D02*
G37*
G36*
X986230D02*
X969012D01*
X969178Y271372D01*
X970038Y268537D01*
X971434Y265924D01*
X973314Y263634D01*
X975604Y261754D01*
X978217Y260358D01*
X981052Y259498D01*
X984000Y259207D01*
X986230D01*
Y273050D01*
D02*
G37*
G36*
X571650Y265154D02*
X558650D01*
X556421Y264860D01*
X554343Y264000D01*
X552559Y262631D01*
X551190Y260847D01*
X550330Y258769D01*
X550036Y256540D01*
X550330Y254311D01*
X551190Y252233D01*
X552559Y250449D01*
X554343Y249080D01*
X556421Y248220D01*
X558650Y247926D01*
X571650D01*
X573879Y248220D01*
X575957Y249080D01*
X577741Y250449D01*
X579110Y252233D01*
X579970Y254311D01*
X580264Y256540D01*
X579970Y258769D01*
X579110Y260847D01*
X577741Y262631D01*
X575957Y264000D01*
X573879Y264860D01*
X571650Y265154D01*
D02*
G37*
G36*
X317650D02*
X304650D01*
X302421Y264860D01*
X300343Y264000D01*
X298559Y262631D01*
X297190Y260847D01*
X296330Y258769D01*
X296036Y256540D01*
X296330Y254311D01*
X297190Y252233D01*
X298559Y250449D01*
X300343Y249080D01*
X302421Y248220D01*
X304650Y247926D01*
X317650D01*
X319879Y248220D01*
X321957Y249080D01*
X323741Y250449D01*
X325110Y252233D01*
X325970Y254311D01*
X326264Y256540D01*
X325970Y258769D01*
X325110Y260847D01*
X323741Y262631D01*
X321957Y264000D01*
X319879Y264860D01*
X317650Y265154D01*
D02*
G37*
G36*
X768561Y298250D02*
X765599D01*
X762693Y297672D01*
X759956Y296538D01*
X757493Y294892D01*
X755398Y292797D01*
X753752Y290334D01*
X752618Y287597D01*
X752040Y284691D01*
Y281729D01*
X752618Y278823D01*
X753752Y276086D01*
X755398Y273623D01*
X757493Y271528D01*
X759956Y269882D01*
X762693Y268748D01*
X764967Y268296D01*
X779493Y253769D01*
Y246862D01*
X778223Y246336D01*
X776667Y247892D01*
X774204Y249538D01*
X771467Y250672D01*
X768561Y251250D01*
X765599D01*
X762693Y250672D01*
X759956Y249538D01*
X757493Y247892D01*
X755398Y245797D01*
X753752Y243334D01*
X752618Y240597D01*
X752040Y237691D01*
Y234729D01*
X752618Y231823D01*
X753752Y229086D01*
X755398Y226623D01*
X757493Y224528D01*
X759956Y222882D01*
X762693Y221748D01*
X765599Y221170D01*
X768561D01*
X771467Y221748D01*
X774204Y222882D01*
X776667Y224528D01*
X778223Y226084D01*
X779493Y225558D01*
Y189391D01*
X765677Y175574D01*
X763403Y175122D01*
X760666Y173988D01*
X758203Y172342D01*
X756108Y170247D01*
X754462Y167784D01*
X753328Y165047D01*
X752750Y162141D01*
Y159179D01*
X753328Y156273D01*
X754462Y153536D01*
X756108Y151073D01*
X758203Y148978D01*
X760666Y147332D01*
X763403Y146198D01*
X766309Y145620D01*
X769271D01*
X772177Y146198D01*
X774914Y147332D01*
X777377Y148978D01*
X779472Y151073D01*
X781118Y153536D01*
X782252Y156273D01*
X782830Y159179D01*
Y162141D01*
X782508Y163762D01*
X796780Y178035D01*
X796781Y178035D01*
X798390Y180133D01*
X799402Y182575D01*
X799747Y185196D01*
Y257964D01*
X799747Y257964D01*
X799402Y260585D01*
X798390Y263027D01*
X796781Y265125D01*
X781798Y280108D01*
X782120Y281729D01*
Y284691D01*
X781542Y287597D01*
X780408Y290334D01*
X778762Y292797D01*
X776667Y294892D01*
X774204Y296538D01*
X771467Y297672D01*
X768561Y298250D01*
D02*
G37*
G36*
X942781Y407830D02*
X939819D01*
X936913Y407252D01*
X934176Y406118D01*
X931713Y404472D01*
X929618Y402377D01*
X927972Y399914D01*
X926838Y397177D01*
X926260Y394271D01*
Y391309D01*
X926838Y388403D01*
X927972Y385666D01*
X929618Y383203D01*
X931173Y381647D01*
Y249696D01*
X931173Y249696D01*
X931518Y247075D01*
X932530Y244633D01*
X934139Y242535D01*
X937362Y239312D01*
X937040Y237691D01*
Y234729D01*
X937618Y231823D01*
X938752Y229086D01*
X940398Y226623D01*
X941954Y225067D01*
X941428Y223797D01*
X911521D01*
X896994Y238323D01*
X896542Y240597D01*
X895408Y243334D01*
X893762Y245797D01*
X891667Y247892D01*
X889204Y249538D01*
X886467Y250672D01*
X883561Y251250D01*
X880599D01*
X877693Y250672D01*
X874956Y249538D01*
X872493Y247892D01*
X870398Y245797D01*
X868752Y243334D01*
X867618Y240597D01*
X867040Y237691D01*
Y234729D01*
X867618Y231823D01*
X868752Y229086D01*
X870398Y226623D01*
X872493Y224528D01*
X874956Y222882D01*
X877693Y221748D01*
X880599Y221170D01*
X883561D01*
X885182Y221492D01*
X900165Y206509D01*
X902263Y204900D01*
X904705Y203888D01*
X907326Y203543D01*
X907326Y203543D01*
X961416D01*
X961416Y203543D01*
X964037Y203888D01*
X966480Y204900D01*
X968577Y206509D01*
X983249Y221181D01*
X984000Y221107D01*
X991000D01*
X993948Y221398D01*
X996783Y222258D01*
X999396Y223654D01*
X1001686Y225534D01*
X1003566Y227824D01*
X1004962Y230437D01*
X1005822Y233272D01*
X1006113Y236220D01*
X1005822Y239168D01*
X1004962Y242003D01*
X1003566Y244616D01*
X1001686Y246906D01*
X999396Y248786D01*
X996783Y250182D01*
X993948Y251042D01*
X991000Y251333D01*
X984000D01*
X981052Y251042D01*
X978217Y250182D01*
X975604Y248786D01*
X973314Y246906D01*
X971434Y244616D01*
X970038Y242003D01*
X969178Y239168D01*
X968887Y236220D01*
X968897Y236117D01*
X968390Y235700D01*
X967120Y236300D01*
Y237691D01*
X966542Y240597D01*
X965408Y243334D01*
X963762Y245797D01*
X961667Y247892D01*
X959204Y249538D01*
X956467Y250672D01*
X954193Y251124D01*
X951427Y253891D01*
Y381647D01*
X952982Y383203D01*
X954628Y385666D01*
X955762Y388403D01*
X956340Y391309D01*
Y394271D01*
X955762Y397177D01*
X954628Y399914D01*
X952982Y402377D01*
X950888Y404472D01*
X948424Y406118D01*
X945687Y407252D01*
X942781Y407830D01*
D02*
G37*
G36*
X571650Y239754D02*
X558650D01*
X556421Y239460D01*
X554343Y238600D01*
X552559Y237231D01*
X551190Y235447D01*
X550330Y233369D01*
X550036Y231140D01*
X550330Y228911D01*
X551190Y226833D01*
X552559Y225049D01*
X554343Y223680D01*
X556421Y222820D01*
X558650Y222526D01*
X571650D01*
X573879Y222820D01*
X575957Y223680D01*
X577741Y225049D01*
X579110Y226833D01*
X579970Y228911D01*
X580264Y231140D01*
X579970Y233369D01*
X579110Y235447D01*
X577741Y237231D01*
X575957Y238600D01*
X573879Y239460D01*
X571650Y239754D01*
D02*
G37*
G36*
X317650D02*
X304650D01*
X302421Y239460D01*
X300343Y238600D01*
X298559Y237231D01*
X297190Y235447D01*
X296330Y233369D01*
X296036Y231140D01*
X296330Y228911D01*
X297190Y226833D01*
X298559Y225049D01*
X300343Y223680D01*
X302421Y222820D01*
X304650Y222526D01*
X317650D01*
X319879Y222820D01*
X321957Y223680D01*
X323741Y225049D01*
X325110Y226833D01*
X325970Y228911D01*
X326264Y231140D01*
X325970Y233369D01*
X325110Y235447D01*
X323741Y237231D01*
X321957Y238600D01*
X319879Y239460D01*
X317650Y239754D01*
D02*
G37*
G36*
X571650Y214354D02*
X566420D01*
Y207010D01*
X580097D01*
X579970Y207969D01*
X579110Y210047D01*
X577741Y211831D01*
X575957Y213200D01*
X573879Y214060D01*
X571650Y214354D01*
D02*
G37*
G36*
X563880D02*
X558650D01*
X556421Y214060D01*
X554343Y213200D01*
X552559Y211831D01*
X551190Y210047D01*
X550330Y207969D01*
X550204Y207010D01*
X563880D01*
Y214354D01*
D02*
G37*
G36*
X317650D02*
X312420D01*
Y207010D01*
X326096D01*
X325970Y207969D01*
X325110Y210047D01*
X323741Y211831D01*
X321957Y213200D01*
X319879Y214060D01*
X317650Y214354D01*
D02*
G37*
G36*
X309880D02*
X304650D01*
X302421Y214060D01*
X300343Y213200D01*
X298559Y211831D01*
X297190Y210047D01*
X296330Y207969D01*
X296203Y207010D01*
X309880D01*
Y214354D01*
D02*
G37*
G36*
X580097Y204470D02*
X566420D01*
Y197126D01*
X571650D01*
X573879Y197420D01*
X575957Y198280D01*
X577741Y199649D01*
X579110Y201433D01*
X579970Y203511D01*
X580097Y204470D01*
D02*
G37*
G36*
X563880D02*
X550204D01*
X550330Y203511D01*
X551190Y201433D01*
X552559Y199649D01*
X554343Y198280D01*
X556421Y197420D01*
X558650Y197126D01*
X563880D01*
Y204470D01*
D02*
G37*
G36*
X326096D02*
X312420D01*
Y197126D01*
X317650D01*
X319879Y197420D01*
X321957Y198280D01*
X323741Y199649D01*
X325110Y201433D01*
X325970Y203511D01*
X326096Y204470D01*
D02*
G37*
G36*
X309880D02*
X296203D01*
X296330Y203511D01*
X297190Y201433D01*
X298559Y199649D01*
X300343Y198280D01*
X302421Y197420D01*
X304650Y197126D01*
X309880D01*
Y204470D01*
D02*
G37*
G36*
X571650Y188954D02*
X558650D01*
X556421Y188660D01*
X554343Y187800D01*
X552559Y186431D01*
X551190Y184647D01*
X550330Y182569D01*
X550036Y180340D01*
X550330Y178111D01*
X551190Y176033D01*
X552559Y174249D01*
X554343Y172880D01*
X556421Y172020D01*
X558650Y171726D01*
X571650D01*
X573879Y172020D01*
X575957Y172880D01*
X577741Y174249D01*
X579110Y176033D01*
X579970Y178111D01*
X580264Y180340D01*
X579970Y182569D01*
X579110Y184647D01*
X577741Y186431D01*
X575957Y187800D01*
X573879Y188660D01*
X571650Y188954D01*
D02*
G37*
G36*
X620815Y284250D02*
X615458D01*
X613489Y283991D01*
X612415Y283546D01*
X611655Y283231D01*
X610080Y282023D01*
X604222Y276165D01*
X603014Y274590D01*
X602254Y272756D01*
X601995Y270787D01*
Y235110D01*
X602254Y233142D01*
X603014Y231308D01*
X604222Y229732D01*
X609615Y224340D01*
Y205080D01*
X585172Y180638D01*
X584869Y180242D01*
X584516Y179890D01*
X584267Y179458D01*
X583964Y179062D01*
X583773Y178602D01*
X583524Y178170D01*
X583395Y177689D01*
X583204Y177228D01*
X583139Y176734D01*
X583010Y176253D01*
Y175754D01*
X582945Y175260D01*
X583010Y174766D01*
Y174267D01*
X583139Y173786D01*
X583204Y173292D01*
X583395Y172831D01*
X583524Y172350D01*
X583773Y171918D01*
X583964Y171458D01*
X584267Y171062D01*
X584516Y170630D01*
X584869Y170278D01*
X585172Y169882D01*
X585568Y169579D01*
X585920Y169226D01*
X586352Y168977D01*
X586748Y168674D01*
X587208Y168483D01*
X587640Y168234D01*
X588121Y168105D01*
X588582Y167914D01*
X589076Y167849D01*
X589557Y167720D01*
X590056D01*
X590550Y167655D01*
X591044Y167720D01*
X591543D01*
X592024Y167849D01*
X592518Y167914D01*
X592979Y168105D01*
X593460Y168234D01*
X593892Y168483D01*
X594352Y168674D01*
X594748Y168977D01*
X595180Y169226D01*
X595532Y169579D01*
X595928Y169882D01*
X622598Y196552D01*
X623806Y198127D01*
X624121Y198887D01*
X624566Y199962D01*
X624825Y201930D01*
Y227490D01*
X624760Y227984D01*
Y228483D01*
X624631Y228964D01*
X624566Y229458D01*
X624375Y229919D01*
X624246Y230400D01*
X623997Y230832D01*
X623806Y231292D01*
X624208Y232184D01*
X624398Y232374D01*
X624519Y232467D01*
X624840Y232425D01*
X666140D01*
X731222Y167342D01*
X731618Y167039D01*
X731970Y166686D01*
X732402Y166437D01*
X732797Y166134D01*
X733258Y165943D01*
X733690Y165694D01*
X734171Y165565D01*
X734632Y165374D01*
X735126Y165309D01*
X735607Y165180D01*
X736106D01*
X736600Y165115D01*
X737094Y165180D01*
X737593D01*
X738074Y165309D01*
X738568Y165374D01*
X739029Y165565D01*
X739510Y165694D01*
X739942Y165943D01*
X740403Y166134D01*
X740798Y166437D01*
X741230Y166686D01*
X741582Y167039D01*
X741978Y167342D01*
X742281Y167738D01*
X742634Y168090D01*
X742883Y168522D01*
X743186Y168918D01*
X743377Y169378D01*
X743626Y169810D01*
X743755Y170291D01*
X743946Y170752D01*
X744011Y171246D01*
X744140Y171727D01*
Y172226D01*
X744205Y172720D01*
X744140Y173214D01*
Y173713D01*
X744011Y174194D01*
X743946Y174688D01*
X743755Y175149D01*
X743626Y175630D01*
X743377Y176062D01*
X743186Y176523D01*
X742883Y176918D01*
X742634Y177350D01*
X742281Y177702D01*
X741978Y178098D01*
X674668Y245408D01*
X673092Y246616D01*
X671258Y247376D01*
X669290Y247635D01*
X624840D01*
X624346Y247570D01*
X623847D01*
X623366Y247441D01*
X622872Y247376D01*
X622411Y247185D01*
X621930Y247056D01*
X621498Y246807D01*
X621037Y246616D01*
X620642Y246313D01*
X620210Y246063D01*
X619858Y245711D01*
X619462Y245408D01*
X619159Y245012D01*
X618806Y244660D01*
X618557Y244228D01*
X618475Y244121D01*
X617205Y244452D01*
Y267637D01*
X618608Y269040D01*
X620815D01*
X621309Y269105D01*
X621808D01*
X622289Y269234D01*
X622783Y269299D01*
X623244Y269490D01*
X623725Y269619D01*
X624157Y269868D01*
X624618Y270059D01*
X625013Y270362D01*
X625445Y270611D01*
X625797Y270964D01*
X626193Y271267D01*
X626496Y271663D01*
X626848Y272015D01*
X627098Y272447D01*
X627401Y272843D01*
X627592Y273303D01*
X627841Y273735D01*
X627970Y274216D01*
X628161Y274677D01*
X628226Y275171D01*
X628355Y275652D01*
Y276151D01*
X628420Y276645D01*
X628355Y277139D01*
Y277638D01*
X628226Y278119D01*
X628161Y278613D01*
X627970Y279074D01*
X627841Y279555D01*
X627592Y279987D01*
X627401Y280448D01*
X627098Y280843D01*
X626848Y281275D01*
X626496Y281627D01*
X626193Y282023D01*
X625797Y282326D01*
X625445Y282679D01*
X625013Y282928D01*
X624618Y283231D01*
X624157Y283422D01*
X623725Y283671D01*
X623244Y283800D01*
X622783Y283991D01*
X622289Y284056D01*
X621808Y284185D01*
X621309D01*
X620815Y284250D01*
D02*
G37*
G36*
X222250Y283177D02*
X219629Y282832D01*
X217187Y281820D01*
X215089Y280211D01*
X213480Y278113D01*
X212468Y275671D01*
X212123Y273050D01*
Y240056D01*
X212123Y240056D01*
X212468Y237435D01*
X213480Y234993D01*
X215089Y232895D01*
X290845Y157140D01*
X290845Y157139D01*
X292943Y155530D01*
X295385Y154518D01*
X298006Y154173D01*
X298006Y154173D01*
X488150D01*
X488150Y154173D01*
X490771Y154518D01*
X493213Y155530D01*
X495311Y157139D01*
X511351Y173179D01*
X512960Y175277D01*
X513972Y177719D01*
X514317Y180340D01*
X513972Y182961D01*
X512960Y185403D01*
X511351Y187501D01*
X509253Y189110D01*
X506811Y190122D01*
X504190Y190467D01*
X501569Y190122D01*
X499127Y189110D01*
X497029Y187501D01*
X483955Y174427D01*
X325313D01*
X324751Y175566D01*
X325110Y176033D01*
X325970Y178111D01*
X326264Y180340D01*
X325970Y182569D01*
X325110Y184647D01*
X323741Y186431D01*
X321957Y187800D01*
X319879Y188660D01*
X317650Y188954D01*
X304650D01*
X302421Y188660D01*
X300343Y187800D01*
X298559Y186431D01*
X297190Y184647D01*
X296330Y182569D01*
X296253Y181985D01*
X295050Y181577D01*
X232377Y244251D01*
Y273050D01*
X232032Y275671D01*
X231020Y278113D01*
X229411Y280211D01*
X227313Y281820D01*
X224871Y282832D01*
X222250Y283177D01*
D02*
G37*
G36*
X991000Y166883D02*
X988770D01*
Y153040D01*
X1005988D01*
X1005822Y154718D01*
X1004962Y157553D01*
X1003566Y160166D01*
X1001686Y162456D01*
X999396Y164336D01*
X996783Y165732D01*
X993948Y166592D01*
X991000Y166883D01*
D02*
G37*
G36*
X986230D02*
X984000D01*
X981052Y166592D01*
X978217Y165732D01*
X975604Y164336D01*
X973314Y162456D01*
X971434Y160166D01*
X970038Y157553D01*
X969178Y154718D01*
X969012Y153040D01*
X986230D01*
Y166883D01*
D02*
G37*
G36*
X1005988Y150500D02*
X988770D01*
Y136657D01*
X991000D01*
X993948Y136948D01*
X996783Y137808D01*
X999396Y139204D01*
X1001686Y141084D01*
X1003566Y143374D01*
X1004962Y145987D01*
X1005822Y148822D01*
X1005988Y150500D01*
D02*
G37*
G36*
X986230D02*
X969012D01*
X969178Y148822D01*
X970038Y145987D01*
X971434Y143374D01*
X973314Y141084D01*
X975604Y139204D01*
X978217Y137808D01*
X981052Y136948D01*
X984000Y136657D01*
X986230D01*
Y150500D01*
D02*
G37*
G36*
X216950Y145930D02*
X196870D01*
Y125850D01*
X216950D01*
Y145930D01*
D02*
G37*
G36*
X132232D02*
X129588D01*
X127035Y145246D01*
X124745Y143924D01*
X122876Y142055D01*
X121554Y139765D01*
X120870Y137212D01*
Y134568D01*
X121554Y132015D01*
X122876Y129725D01*
X124745Y127856D01*
X127035Y126534D01*
X129588Y125850D01*
X132232D01*
X134785Y126534D01*
X137075Y127856D01*
X138944Y129725D01*
X140266Y132015D01*
X140950Y134568D01*
Y137212D01*
X140266Y139765D01*
X138944Y142055D01*
X137075Y143924D01*
X134785Y145246D01*
X132232Y145930D01*
D02*
G37*
G36*
X991000Y128783D02*
X984000D01*
X981052Y128492D01*
X978217Y127632D01*
X975604Y126236D01*
X973314Y124356D01*
X971434Y122066D01*
X970038Y119453D01*
X969178Y116618D01*
X969063Y115453D01*
X967781Y115390D01*
X967252Y118047D01*
X966118Y120784D01*
X964472Y123247D01*
X962377Y125342D01*
X959914Y126988D01*
X957177Y128122D01*
X954271Y128700D01*
X951309D01*
X948403Y128122D01*
X945666Y126988D01*
X943203Y125342D01*
X941108Y123247D01*
X939462Y120784D01*
X938328Y118047D01*
X937750Y115141D01*
Y112179D01*
X938328Y109273D01*
X939462Y106536D01*
X941108Y104073D01*
X942664Y102517D01*
X942138Y101247D01*
X912231D01*
X897704Y115773D01*
X897252Y118047D01*
X896118Y120784D01*
X894472Y123247D01*
X892377Y125342D01*
X889914Y126988D01*
X887177Y128122D01*
X884271Y128700D01*
X881309D01*
X878403Y128122D01*
X875666Y126988D01*
X873203Y125342D01*
X871108Y123247D01*
X869462Y120784D01*
X868328Y118047D01*
X867750Y115141D01*
Y112179D01*
X868328Y109273D01*
X869462Y106536D01*
X871108Y104073D01*
X873203Y101978D01*
X875666Y100332D01*
X878403Y99198D01*
X881309Y98620D01*
X884271D01*
X885892Y98942D01*
X900875Y83959D01*
X902973Y82350D01*
X905415Y81338D01*
X908036Y80993D01*
X908036Y80993D01*
X962126D01*
X962126Y80993D01*
X964747Y81338D01*
X967190Y82350D01*
X969287Y83959D01*
X983895Y98568D01*
X984000Y98557D01*
X991000D01*
X993948Y98848D01*
X996783Y99708D01*
X999396Y101104D01*
X1001686Y102984D01*
X1003566Y105274D01*
X1004962Y107887D01*
X1005822Y110722D01*
X1006113Y113670D01*
X1005822Y116618D01*
X1004962Y119453D01*
X1003566Y122066D01*
X1001686Y124356D01*
X999396Y126236D01*
X996783Y127632D01*
X993948Y128492D01*
X991000Y128783D01*
D02*
G37*
G36*
X662940Y149845D02*
X637540D01*
X635572Y149586D01*
X633737Y148826D01*
X632162Y147618D01*
X599142Y114598D01*
X597934Y113022D01*
X597174Y111188D01*
X596915Y109220D01*
X597174Y107252D01*
X597934Y105417D01*
X599142Y103842D01*
X600718Y102634D01*
X602552Y101874D01*
X604520Y101615D01*
X606488Y101874D01*
X608322Y102634D01*
X609898Y103842D01*
X640690Y134635D01*
X662940D01*
X664908Y134894D01*
X666742Y135654D01*
X668318Y136862D01*
X669526Y138438D01*
X670286Y140272D01*
X670545Y142240D01*
X670286Y144208D01*
X669526Y146042D01*
X668318Y147618D01*
X666742Y148826D01*
X664908Y149586D01*
X662940Y149845D01*
D02*
G37*
G36*
X769271Y128700D02*
X766309D01*
X763403Y128122D01*
X760666Y126988D01*
X758203Y125342D01*
X756108Y123247D01*
X754462Y120784D01*
X753328Y118047D01*
X752750Y115141D01*
Y112179D01*
X753328Y109273D01*
X754462Y106536D01*
X756108Y104073D01*
X758203Y101978D01*
X760666Y100332D01*
X763403Y99198D01*
X766309Y98620D01*
X769271D01*
X772177Y99198D01*
X774914Y100332D01*
X777377Y101978D01*
X779472Y104073D01*
X781118Y106536D01*
X782252Y109273D01*
X782830Y112179D01*
Y115141D01*
X782252Y118047D01*
X781118Y120784D01*
X779472Y123247D01*
X777377Y125342D01*
X774914Y126988D01*
X772177Y128122D01*
X769271Y128700D01*
D02*
G37*
G36*
X1064084Y65600D02*
X1059356D01*
X1054686Y64860D01*
X1050189Y63399D01*
X1045976Y61252D01*
X1042150Y58473D01*
X1038807Y55130D01*
X1036028Y51304D01*
X1033881Y47091D01*
X1032420Y42594D01*
X1031680Y37924D01*
Y33196D01*
X1032420Y28526D01*
X1033881Y24029D01*
X1036028Y19816D01*
X1038807Y15990D01*
X1042150Y12647D01*
X1045976Y9868D01*
X1050189Y7721D01*
X1054686Y6260D01*
X1059356Y5520D01*
X1064084D01*
X1068754Y6260D01*
X1073251Y7721D01*
X1077464Y9868D01*
X1081290Y12647D01*
X1084633Y15990D01*
X1087412Y19816D01*
X1089559Y24029D01*
X1091020Y28526D01*
X1091760Y33196D01*
Y37924D01*
X1091020Y42594D01*
X1089559Y47091D01*
X1087412Y51304D01*
X1084633Y55130D01*
X1081290Y58473D01*
X1077464Y61252D01*
X1073251Y63399D01*
X1068754Y64860D01*
X1064084Y65600D01*
D02*
G37*
G36*
X35384D02*
X30656D01*
X25986Y64860D01*
X21489Y63399D01*
X17276Y61252D01*
X13450Y58473D01*
X10107Y55130D01*
X7327Y51304D01*
X5181Y47091D01*
X3720Y42594D01*
X2980Y37924D01*
Y33196D01*
X3720Y28526D01*
X5181Y24029D01*
X7327Y19816D01*
X10107Y15990D01*
X13450Y12647D01*
X17276Y9868D01*
X21489Y7721D01*
X25986Y6260D01*
X30656Y5520D01*
X35384D01*
X40054Y6260D01*
X44551Y7721D01*
X48764Y9868D01*
X52590Y12647D01*
X55933Y15990D01*
X58713Y19816D01*
X60859Y24029D01*
X62320Y28526D01*
X63060Y33196D01*
Y37924D01*
X62320Y42594D01*
X60859Y47091D01*
X58713Y51304D01*
X55933Y55130D01*
X52590Y58473D01*
X48764Y61252D01*
X44551Y63399D01*
X40054Y64860D01*
X35384Y65600D01*
D02*
G37*
%LPD*%
G36*
X297540Y362902D02*
X297190Y362447D01*
X296330Y360369D01*
X296036Y358140D01*
X296330Y355911D01*
X297190Y353833D01*
X297540Y353378D01*
X296978Y352239D01*
X293760D01*
X291793Y351847D01*
X290126Y350734D01*
X251261Y311868D01*
X251077Y311914D01*
X250188Y313417D01*
X250570Y314842D01*
Y317618D01*
X250172Y319104D01*
X295109Y364041D01*
X296978D01*
X297540Y362902D01*
D02*
G37*
D65*
X165100Y220980D02*
X157480Y228600D01*
Y321310D01*
X159590Y323420D01*
Y387660D01*
X142240Y405010D01*
Y468320D01*
X142560Y468000D02*
X230820D01*
X269000Y467360D02*
Y531890D01*
X306070Y568960D01*
X561314D01*
X604520Y525754D01*
Y440690D01*
X627602Y460788D02*
Y536988D01*
X577850Y586740D01*
X292100D01*
X248920Y543560D01*
Y401320D01*
X240530Y392930D01*
X143035Y321475D02*
X53815D01*
X222250Y240056D02*
Y273050D01*
Y240056D02*
X298006Y164300D01*
X488150D01*
X504190Y180340D01*
X701040Y271780D02*
X676910Y295910D01*
Y411480D01*
X627602Y460788D01*
X767080Y283210D02*
Y280504D01*
X789620Y257964D01*
Y185196D01*
X767790Y163366D01*
Y160660D01*
X882790Y113660D02*
X885496D01*
X908036Y91120D01*
X962126D01*
X984676Y113670D01*
X987500D01*
X961416Y213670D02*
X983966Y236220D01*
X987500D01*
X952080Y236210D02*
Y238916D01*
X941300Y249696D01*
Y392790D01*
X884786Y236210D02*
X907326Y213670D01*
X961416D01*
X884786Y236210D02*
X882080D01*
D66*
X143035Y321475D02*
X143510Y321000D01*
X143035Y361475D02*
X53815D01*
Y381475D02*
X143035D01*
X53340Y321950D02*
X53815Y321475D01*
X230820Y468000D02*
X231140Y467680D01*
X304650Y408940D02*
X311150D01*
X288290Y425300D02*
Y525780D01*
Y528320D01*
X211325Y554990D02*
X101600D01*
X55880Y509270D01*
Y529270D02*
X96840Y570230D01*
X212090D01*
X142240Y468320D02*
X142560Y468000D01*
X304650Y408940D02*
X288290Y425300D01*
X590550Y175260D02*
X617220Y201930D01*
Y227490D01*
X609600Y235110D01*
Y270787D01*
X615458Y276645D01*
X620815D01*
X624840Y240030D02*
X669290D01*
X736600Y172720D01*
X662940Y142240D02*
X637540D01*
X604520Y109220D01*
X737870Y298450D02*
Y302170D01*
X715010Y325030D01*
D67*
X240030Y290830D02*
Y293370D01*
X293760Y347100D01*
X338210D01*
X351790Y360680D01*
X552221D01*
X553422Y359479D01*
X563811D01*
X565150Y358140D01*
Y383540D02*
X345440D01*
X331080Y369180D01*
X292980D01*
X240030Y316230D01*
Y341630D02*
X292980Y394580D01*
X329810D01*
X344170Y408940D01*
X565150D01*
X143035Y381475D02*
X143510Y381000D01*
X143035Y361475D02*
X143510Y361000D01*
X53815Y361475D02*
X53340Y361950D01*
Y381950D02*
X53815Y381475D01*
D68*
X957180Y577590D02*
D03*
D69*
X992180Y529590D02*
D03*
D70*
X932180Y529590D02*
D03*
D71*
X767790Y113660D02*
D03*
Y160660D02*
D03*
X767080Y236210D02*
D03*
Y283210D02*
D03*
X882080Y236210D02*
D03*
X952080D02*
D03*
X882790Y113660D02*
D03*
X952790D02*
D03*
X1041300Y392790D02*
D03*
Y437790D02*
D03*
X941300D02*
D03*
Y392790D02*
D03*
D72*
X311150Y180340D02*
D03*
Y205740D02*
D03*
Y231140D02*
D03*
Y256540D02*
D03*
Y281940D02*
D03*
Y307340D02*
D03*
Y332740D02*
D03*
Y358140D02*
D03*
Y383540D02*
D03*
Y408940D02*
D03*
Y434340D02*
D03*
Y459740D02*
D03*
Y485140D02*
D03*
Y510540D02*
D03*
X565150Y281940D02*
D03*
Y256540D02*
D03*
Y231140D02*
D03*
Y205740D02*
D03*
Y180340D02*
D03*
Y307340D02*
D03*
Y332740D02*
D03*
Y358140D02*
D03*
Y383540D02*
D03*
Y408940D02*
D03*
Y434340D02*
D03*
Y459740D02*
D03*
Y485140D02*
D03*
Y510540D02*
D03*
Y535940D02*
D03*
D73*
X311150Y535940D02*
D03*
D74*
X240030Y290830D02*
D03*
Y316230D02*
D03*
Y341630D02*
D03*
Y367030D02*
D03*
D75*
X240030Y392430D02*
D03*
D76*
X143510Y341000D02*
D03*
Y361000D02*
D03*
Y381000D02*
D03*
X53340Y381950D02*
D03*
Y361950D02*
D03*
Y341950D02*
D03*
X231140Y487680D02*
D03*
Y507680D02*
D03*
Y527680D02*
D03*
X142240Y528320D02*
D03*
Y508320D02*
D03*
Y488320D02*
D03*
X55880Y529270D02*
D03*
Y509270D02*
D03*
Y489270D02*
D03*
D77*
X143510Y321000D02*
D03*
X53340Y321950D02*
D03*
X231140Y467680D02*
D03*
X142240Y468320D02*
D03*
X55880Y469270D02*
D03*
D78*
X33020Y35560D02*
D03*
X35560Y607060D02*
D03*
X1061720Y35560D02*
D03*
X1060450Y609600D02*
D03*
D79*
X130910Y135890D02*
D03*
D80*
X206910Y135890D02*
D03*
D81*
X987500Y113670D02*
D03*
Y151770D02*
D03*
Y236220D02*
D03*
Y274320D02*
D03*
D82*
X165100Y220980D02*
D03*
X157480Y321310D02*
D03*
X269240Y467360D02*
D03*
X288290Y525780D02*
D03*
X211325Y554990D02*
D03*
X212090Y570230D02*
D03*
X604520Y440690D02*
D03*
X676910Y411480D02*
D03*
X715010Y325030D02*
D03*
X737870Y298450D02*
D03*
X701040Y271780D02*
D03*
X620815Y276645D02*
D03*
X624840Y240030D02*
D03*
X617220Y227490D02*
D03*
X590550Y175260D02*
D03*
X504190Y180340D02*
D03*
X736600Y172720D02*
D03*
D83*
X604520Y109220D02*
D03*
X662940Y142240D02*
D03*
X740410Y525780D02*
D03*
X739140Y543560D02*
D03*
Y558800D02*
D03*
X711200D02*
D03*
Y543560D02*
D03*
Y527050D02*
D03*
X681990Y558800D02*
D03*
Y542290D02*
D03*
Y527050D02*
D03*
M02*
