M48
;Layer_Color=9474304
;FILE_FORMAT=4:3
METRIC,LZ
;TYPE=PLATED
T1F00S00C0.500
T2F00S00C0.600
T3F00S00C0.700
T4F00S00C0.800
T6F00S00C1.200
T7F00S00C1.300
T8F00S00C3.200
%
T01
X0121158Y0057785
X0115316Y0054483
X0123063Y0096266
Y009779
Y0099441
X0125984
Y0097917
Y0096266
X0128905Y0096139
X0128778Y0097917
Y0099441
T02
X0128524Y0060833
X0128651Y0073406
X0126365Y0076064
X0124968Y0070739
X0116946Y0071226
X0117348Y0067564
X0116586Y006631
X0111379Y0066675
Y0064135
Y0061595
X0113919Y0061087
X0105283Y0061595
X0111379Y0069215
Y0071755
Y0074295
Y0076835
X0085979
Y0074295
Y0071755
Y0069215
Y0066675
Y0064135
Y0061595
X0071374Y0065659
X0070612Y0075692
X0075996Y009906
X0076073Y0100584
X0083693Y0096139
X0085979Y0097155
Y0094615
Y0092075
Y0089535
Y0086995
Y0084455
Y0081915
Y0079375
X0081788Y0090297
X0111379Y0089535
Y0086995
Y0084455
Y0081915
Y0079375
X0115316Y008763
X0111379Y0092075
Y0094615
Y0097155
X0122555Y0084709
T03
X0060198Y0075756
Y0077756
X0069215Y0077661
Y0075661
Y0079661
Y0081661
X0069088Y0090393
Y0092393
Y0094393
Y0096393
X0060452Y0096488
Y0094488
Y0092488
Y0090488
X0060198Y0081756
Y0079756
X0077978Y0090329
Y0092329
Y0094329
Y0096329
T04
X0067955Y005715
X0075555
X0078867Y0072644
Y0075184
Y0077724
Y0080264
Y0082804
T06
X0131643Y0054927
Y0059627
X0131572Y0067182
Y0071882
X0143072Y0067182
X0150072
X0150143Y0054927
X0143143
X0148994Y008284
Y008734
X0158994
Y008284
T07
X0153614Y0054928
Y0058738
Y0067183
Y0070993
T08
X0161036Y0047117
X0058166
X005842Y0104267
X0160909Y0104521
M30
