G04*
G04 #@! TF.GenerationSoftware,Altium Limited,Altium Designer,23.1.1 (15)*
G04*
G04 Layer_Physical_Order=1*
G04 Layer_Color=255*
%FSLAX44Y44*%
%MOMM*%
G71*
G04*
G04 #@! TF.SameCoordinates,30CF7A92-77B0-4B7A-85BE-2C256DE05FD5*
G04*
G04*
G04 #@! TF.FilePolarity,Positive*
G04*
G01*
G75*
%ADD23R,1.0000X1.3000*%
%ADD24R,1.3000X1.0000*%
%ADD25R,1.0000X1.2000*%
%ADD26R,1.2000X3.5000*%
%ADD27R,1.7000X1.8000*%
%ADD28R,0.9000X0.7000*%
%ADD29R,2.8000X1.8000*%
%ADD30R,1.3000X1.1000*%
%ADD31R,1.3000X3.4000*%
%ADD32R,1.8000X1.7000*%
%ADD33R,1.2000X3.5000*%
%ADD34R,10.5000X2.5000*%
%ADD35R,8.5000X6.5000*%
%ADD65C,1.5000*%
%ADD66C,1.0000*%
%ADD67C,0.5000*%
%ADD68O,4.5000X2.5000*%
%ADD69O,2.5000X4.5000*%
%ADD70O,2.5000X5.0000*%
%ADD71C,2.5000*%
%ADD72O,2.5000X1.2000*%
%ADD73R,2.5000X1.2000*%
%ADD74C,1.6000*%
%ADD75R,1.6000X1.6000*%
%ADD76C,1.2080*%
%ADD77R,1.2080X1.2080*%
%ADD78C,5.5000*%
%ADD79C,1.5000*%
%ADD80R,1.5000X1.5000*%
%ADD81O,3.2000X2.5000*%
%ADD82C,1.0000*%
%ADD83C,0.8000*%
G36*
X1096010Y1270D02*
X0D01*
Y642620D01*
X1096010D01*
Y1270D01*
D02*
G37*
%LPC*%
G36*
X766240Y593640D02*
X712470D01*
Y579870D01*
X766240D01*
Y593640D01*
D02*
G37*
G36*
X709930D02*
X656160D01*
Y579870D01*
X709930D01*
Y593640D01*
D02*
G37*
G36*
X1062814Y639640D02*
X1058086D01*
X1053416Y638900D01*
X1048919Y637439D01*
X1044706Y635293D01*
X1040880Y632513D01*
X1037537Y629170D01*
X1034758Y625344D01*
X1032611Y621131D01*
X1031150Y616634D01*
X1030410Y611964D01*
Y607236D01*
X1031150Y602566D01*
X1032611Y598069D01*
X1034758Y593856D01*
X1037537Y590030D01*
X1040880Y586687D01*
X1044706Y583908D01*
X1048919Y581761D01*
X1053416Y580300D01*
X1058086Y579560D01*
X1062814D01*
X1067484Y580300D01*
X1071981Y581761D01*
X1076194Y583908D01*
X1080020Y586687D01*
X1083363Y590030D01*
X1086143Y593856D01*
X1088289Y598069D01*
X1089750Y602566D01*
X1090490Y607236D01*
Y611964D01*
X1089750Y616634D01*
X1088289Y621131D01*
X1086143Y625344D01*
X1083363Y629170D01*
X1080020Y632513D01*
X1076194Y635293D01*
X1071981Y637439D01*
X1067484Y638900D01*
X1062814Y639640D01*
D02*
G37*
G36*
X37924Y637100D02*
X33196D01*
X28526Y636360D01*
X24029Y634899D01*
X19816Y632752D01*
X15990Y629973D01*
X12647Y626630D01*
X9868Y622804D01*
X7721Y618591D01*
X6260Y614094D01*
X5520Y609424D01*
Y604696D01*
X6260Y600026D01*
X7721Y595529D01*
X9868Y591316D01*
X12647Y587490D01*
X15990Y584147D01*
X19816Y581367D01*
X24029Y579221D01*
X28526Y577760D01*
X33196Y577020D01*
X37924D01*
X42594Y577760D01*
X47091Y579221D01*
X51304Y581367D01*
X55130Y584147D01*
X58473Y587490D01*
X61252Y591316D01*
X63399Y595529D01*
X64860Y600026D01*
X65600Y604696D01*
Y609424D01*
X64860Y614094D01*
X63399Y618591D01*
X61252Y622804D01*
X58473Y626630D01*
X55130Y629973D01*
X51304Y632752D01*
X47091Y634899D01*
X42594Y636360D01*
X37924Y637100D01*
D02*
G37*
G36*
X981710Y616000D02*
X848360D01*
X847369Y615803D01*
X846529Y615241D01*
X835139Y603851D01*
X834859Y603433D01*
X834580Y603018D01*
X834580Y603014D01*
X834577Y603011D01*
X834479Y602517D01*
X834380Y602028D01*
X834312Y580277D01*
X834332Y580173D01*
X834320Y580067D01*
X834429Y579680D01*
X834506Y579286D01*
X834565Y579197D01*
X834594Y579095D01*
X839702Y569056D01*
X843410Y561769D01*
X843648Y561466D01*
X843857Y561142D01*
X843958Y561072D01*
X844035Y560975D01*
X844371Y560786D01*
X844688Y560567D01*
X844808Y560541D01*
X844916Y560481D01*
X845299Y560435D01*
X845675Y560354D01*
X899693Y559469D01*
X899674Y558199D01*
X852206Y558849D01*
X852188Y558846D01*
X852170Y558850D01*
X851691Y558755D01*
X851212Y558666D01*
X851197Y558656D01*
X851179Y558653D01*
X850774Y558382D01*
X850364Y558116D01*
X850354Y558101D01*
X850339Y558091D01*
X846628Y554380D01*
X846170D01*
Y553923D01*
X840179Y547931D01*
X839617Y547091D01*
X839420Y546100D01*
Y521970D01*
X839617Y520979D01*
X840179Y520139D01*
X847799Y512519D01*
X848639Y511957D01*
X849630Y511760D01*
X912057D01*
X923240Y500577D01*
Y431800D01*
X923437Y430809D01*
X923999Y429969D01*
X934159Y419809D01*
X934999Y419247D01*
X935990Y419050D01*
X951230D01*
X952221Y419247D01*
X953061Y419809D01*
X961951Y428699D01*
X962513Y429539D01*
X962710Y430530D01*
Y440690D01*
X962513Y441681D01*
X961951Y442521D01*
X947470Y457003D01*
Y458678D01*
X948740Y459110D01*
X951425Y455621D01*
X951552Y455509D01*
X951646Y455369D01*
X951929Y455180D01*
X952185Y454955D01*
X952346Y454901D01*
X952486Y454807D01*
X952820Y454741D01*
X953143Y454632D01*
X953311Y454643D01*
X953477Y454610D01*
X999687D01*
X1034489Y419809D01*
X1035329Y419247D01*
X1036320Y419050D01*
X1051560D01*
X1052551Y419247D01*
X1053391Y419809D01*
X1064821Y431239D01*
X1065383Y432079D01*
X1065580Y433070D01*
Y469900D01*
X1065383Y470891D01*
X1064821Y471731D01*
X1016050Y520503D01*
Y581660D01*
X1015853Y582651D01*
X1015291Y583491D01*
X983541Y615241D01*
X982701Y615803D01*
X981710Y616000D01*
D02*
G37*
G36*
X766240Y577330D02*
X656160D01*
Y563560D01*
X666160D01*
Y547370D01*
X756240D01*
Y563560D01*
X766240D01*
Y577330D01*
D02*
G37*
G36*
X571650Y544554D02*
X558650D01*
X556421Y544260D01*
X554343Y543400D01*
X552559Y542031D01*
X551190Y540247D01*
X550330Y538169D01*
X550036Y535940D01*
X550330Y533711D01*
X551190Y531633D01*
X552559Y529849D01*
X554343Y528480D01*
X556421Y527620D01*
X558650Y527326D01*
X571650D01*
X573879Y527620D01*
X575957Y528480D01*
X577741Y529849D01*
X579110Y531633D01*
X579970Y533711D01*
X580264Y535940D01*
X579970Y538169D01*
X579110Y540247D01*
X577741Y542031D01*
X575957Y543400D01*
X573879Y544260D01*
X571650Y544554D01*
D02*
G37*
G36*
X57010Y537850D02*
X54750D01*
X52568Y537265D01*
X50612Y536136D01*
X49014Y534538D01*
X47885Y532582D01*
X47300Y530400D01*
Y528140D01*
X47885Y525958D01*
X49014Y524002D01*
X50612Y522404D01*
X52568Y521275D01*
X54750Y520690D01*
X57010D01*
X59192Y521275D01*
X61148Y522404D01*
X62746Y524002D01*
X63875Y525958D01*
X64460Y528140D01*
Y530400D01*
X63875Y532582D01*
X62746Y534538D01*
X61148Y536136D01*
X59192Y537265D01*
X57010Y537850D01*
D02*
G37*
G36*
X802250Y549700D02*
X780170D01*
Y537375D01*
X757413Y514618D01*
X756240Y515104D01*
Y544830D01*
X712470D01*
Y511060D01*
X752196D01*
X752682Y509887D01*
X745734Y502940D01*
X717585D01*
X715616Y502681D01*
X713782Y501921D01*
X712207Y500712D01*
X689822Y478328D01*
X688614Y476753D01*
X687854Y474918D01*
X687595Y472950D01*
Y458386D01*
X685827D01*
Y466758D01*
X685827Y466759D01*
X685482Y469380D01*
X684470Y471822D01*
X682861Y473919D01*
X633159Y523621D01*
X631062Y525230D01*
X628620Y526242D01*
X625999Y526587D01*
X625998Y526587D01*
X622300D01*
X619679Y526242D01*
X617237Y525230D01*
X615634Y524000D01*
X613260D01*
Y520871D01*
X612518Y519081D01*
X612173Y516460D01*
X612518Y513839D01*
X613260Y512049D01*
Y508920D01*
X615634D01*
X617237Y507690D01*
X619679Y506678D01*
X621729Y506409D01*
X624964Y503173D01*
X624478Y502000D01*
X623570D01*
Y494460D01*
Y486920D01*
X631340D01*
Y495138D01*
X632513Y495624D01*
X665573Y462564D01*
Y439846D01*
X665573Y439846D01*
X665919Y437225D01*
X666783Y435137D01*
Y413120D01*
X667128Y410499D01*
X668140Y408057D01*
X669035Y406890D01*
X668409Y405620D01*
X663740D01*
Y366540D01*
X681820D01*
Y378475D01*
X724250D01*
Y376530D01*
X741330D01*
Y416610D01*
X736805D01*
Y418306D01*
X743930D01*
Y438346D01*
X745200D01*
Y439616D01*
X753740D01*
Y455781D01*
X759744D01*
X777620Y437905D01*
Y433580D01*
X779055D01*
Y420280D01*
X776618D01*
Y404200D01*
X794698D01*
Y404635D01*
X839710D01*
X841678Y404894D01*
X843513Y405654D01*
X844900Y406718D01*
X846170Y406390D01*
Y368910D01*
X863250D01*
Y408990D01*
X862315D01*
Y410700D01*
X871250D01*
Y433780D01*
X838170D01*
Y421455D01*
X836560Y419845D01*
X794698D01*
Y420280D01*
X794265D01*
Y433580D01*
X795700D01*
Y448660D01*
X788375D01*
X782628Y454407D01*
X783114Y455580D01*
X785390D01*
Y461850D01*
X777620D01*
Y461074D01*
X776447Y460588D01*
X768271Y468764D01*
X766696Y469972D01*
X764862Y470732D01*
X762894Y470991D01*
X736077D01*
X734109Y470732D01*
X732274Y469972D01*
X730699Y468764D01*
X723822Y461887D01*
X722614Y460312D01*
X721854Y458478D01*
X721842Y458386D01*
X712470D01*
Y438346D01*
Y418306D01*
X721595D01*
Y411660D01*
X721854Y409692D01*
X722077Y409155D01*
X722614Y407858D01*
X723822Y406282D01*
X724250Y405855D01*
Y393685D01*
X681820D01*
Y404287D01*
X681973Y404350D01*
X684071Y405959D01*
X685680Y408057D01*
X686692Y410499D01*
X687037Y413120D01*
Y418306D01*
X709930D01*
Y438346D01*
Y458386D01*
X702805D01*
Y469800D01*
X720735Y487730D01*
X748885D01*
X750853Y487989D01*
X752687Y488748D01*
X754262Y489957D01*
X790430Y526125D01*
X791990D01*
X822252Y495862D01*
X823828Y494654D01*
X825662Y493894D01*
X827630Y493635D01*
X838170D01*
Y485700D01*
X871250D01*
Y508780D01*
X851204D01*
X850710Y508845D01*
X830780D01*
X802250Y537375D01*
Y549700D01*
D02*
G37*
G36*
X709930Y544830D02*
X666160D01*
Y511060D01*
X709930D01*
Y544830D01*
D02*
G37*
G36*
X472290Y604505D02*
X187960D01*
X185992Y604246D01*
X184158Y603486D01*
X182582Y602278D01*
X136862Y556558D01*
X135654Y554982D01*
X134894Y553148D01*
X134635Y551180D01*
Y532308D01*
X134245Y531632D01*
X134043Y530878D01*
X101302Y498138D01*
X100094Y496562D01*
X99334Y494728D01*
X99075Y492760D01*
Y417830D01*
X99334Y415862D01*
X100094Y414027D01*
X101302Y412452D01*
X135313Y378442D01*
X135515Y377688D01*
X136644Y375732D01*
X138242Y374134D01*
X140198Y373005D01*
X142380Y372420D01*
X142515D01*
X143001Y371247D01*
X140952Y369197D01*
X140198Y368995D01*
X138242Y367866D01*
X136644Y366268D01*
X135515Y364312D01*
X134930Y362130D01*
Y359870D01*
X135515Y357688D01*
X136644Y355732D01*
X138242Y354134D01*
X140198Y353005D01*
X142380Y352420D01*
X144640D01*
X146822Y353005D01*
X148778Y354134D01*
X150376Y355732D01*
X151505Y357688D01*
X151707Y358442D01*
X162468Y369202D01*
X163676Y370778D01*
X164436Y372612D01*
X164695Y374580D01*
Y390280D01*
X164436Y392248D01*
X163676Y394082D01*
X162468Y395658D01*
X126985Y431140D01*
Y482310D01*
X132487Y487812D01*
X133660Y487326D01*
Y487190D01*
X134245Y485008D01*
X135374Y483052D01*
X136972Y481454D01*
X138928Y480325D01*
X140970Y479778D01*
Y488320D01*
X142240D01*
Y489590D01*
X150782D01*
X150235Y491632D01*
X149106Y493588D01*
X147508Y495186D01*
X145552Y496315D01*
X143370Y496900D01*
X143235D01*
X142748Y498073D01*
X144798Y500123D01*
X145552Y500325D01*
X147508Y501454D01*
X149106Y503052D01*
X150235Y505008D01*
X150728Y506848D01*
X161197Y517317D01*
X162406Y518893D01*
X163166Y520727D01*
X163425Y522695D01*
Y538750D01*
X201430Y576755D01*
X203675D01*
X203802Y576499D01*
X204177Y575485D01*
X203474Y573788D01*
X203215Y571820D01*
X203474Y569852D01*
X204234Y568018D01*
X205442Y566442D01*
X205672Y566266D01*
X206056Y565600D01*
X207460Y564197D01*
X208742Y563456D01*
X208830Y562703D01*
X208677Y562087D01*
X208414Y562016D01*
X207982Y561767D01*
X207522Y561576D01*
X207127Y561273D01*
X206695Y561023D01*
X206342Y560671D01*
X205947Y560368D01*
X205644Y559972D01*
X205291Y559620D01*
X205042Y559188D01*
X204738Y558792D01*
X204548Y558332D01*
X204298Y557900D01*
X204169Y557419D01*
X203979Y556958D01*
X203913Y556464D01*
X203785Y555983D01*
Y555484D01*
X203719Y554990D01*
X203785Y554496D01*
Y553997D01*
X203913Y553516D01*
X203979Y553022D01*
X204169Y552561D01*
X204298Y552080D01*
X204548Y551648D01*
X204738Y551188D01*
X205042Y550792D01*
X205291Y550360D01*
X205644Y550008D01*
X205947Y549612D01*
X206342Y549309D01*
X206695Y548956D01*
X207127Y548707D01*
X207522Y548404D01*
X207982Y548213D01*
X208414Y547964D01*
X208896Y547835D01*
X209356Y547644D01*
X209851Y547579D01*
X210332Y547450D01*
X210830D01*
X211325Y547385D01*
X219089D01*
X219615Y546115D01*
X212182Y538683D01*
X210974Y537108D01*
X210214Y535273D01*
X209955Y533305D01*
Y521823D01*
X210214Y519855D01*
X210974Y518020D01*
X212182Y516445D01*
X222737Y505891D01*
X223145Y504368D01*
X224274Y502412D01*
X225872Y500814D01*
X227828Y499685D01*
X230010Y499100D01*
X232270D01*
X234452Y499685D01*
X236408Y500814D01*
X238006Y502412D01*
X239135Y504368D01*
X239720Y506550D01*
Y508810D01*
X239135Y510992D01*
X238006Y512948D01*
X236408Y514546D01*
X234478Y515660D01*
X232214Y517924D01*
X232715Y519219D01*
X234452Y519685D01*
X235128Y520075D01*
X260380D01*
X281955Y498500D01*
Y398630D01*
X282214Y396662D01*
X282974Y394827D01*
X284182Y393252D01*
X296475Y380960D01*
X297190Y379233D01*
X298559Y377449D01*
X300343Y376080D01*
X302421Y375220D01*
X304650Y374926D01*
X317650D01*
X319879Y375220D01*
X321957Y376080D01*
X323741Y377449D01*
X325110Y379233D01*
X325970Y381311D01*
X326264Y383540D01*
X325970Y385769D01*
X325110Y387847D01*
X323741Y389631D01*
X321957Y391000D01*
X319879Y391860D01*
X317650Y392154D01*
X306791D01*
X297568Y401378D01*
X297667Y402010D01*
X297714Y402054D01*
X299027Y402490D01*
X300343Y401480D01*
X302421Y400620D01*
X304650Y400326D01*
X317650D01*
X319879Y400620D01*
X321957Y401480D01*
X323741Y402849D01*
X325110Y404633D01*
X325970Y406711D01*
X326264Y408940D01*
X325970Y411169D01*
X325110Y413247D01*
X323741Y415031D01*
X321957Y416400D01*
X319879Y417260D01*
X317650Y417554D01*
X304650D01*
X302421Y417260D01*
X300343Y416400D01*
X298559Y415031D01*
X298435Y414869D01*
X297165Y415300D01*
Y427980D01*
X298435Y428411D01*
X298559Y428249D01*
X300343Y426880D01*
X302421Y426020D01*
X304650Y425726D01*
X317650D01*
X319879Y426020D01*
X321957Y426880D01*
X323741Y428249D01*
X325110Y430033D01*
X325825Y431760D01*
X349108Y455042D01*
X350316Y456618D01*
X351076Y458452D01*
X351335Y460420D01*
Y550257D01*
X351076Y552226D01*
X350631Y553300D01*
X350316Y554060D01*
X349108Y555635D01*
X329161Y575582D01*
X329647Y576755D01*
X458970D01*
X537505Y498220D01*
Y448421D01*
X537764Y446453D01*
X538524Y444619D01*
X539732Y443044D01*
X550279Y432497D01*
X550330Y432111D01*
X551190Y430033D01*
X552559Y428249D01*
X554343Y426880D01*
X556421Y426020D01*
X558650Y425726D01*
X571650D01*
X573879Y426020D01*
X575957Y426880D01*
X577741Y428249D01*
X579110Y430033D01*
X579970Y432111D01*
X580264Y434340D01*
X579970Y436569D01*
X579110Y438647D01*
X577741Y440431D01*
X575957Y441800D01*
X573879Y442660D01*
X571650Y442954D01*
X561333D01*
X553313Y450973D01*
X553379Y451419D01*
X553653Y451664D01*
X554764Y452106D01*
X556421Y451420D01*
X558650Y451126D01*
X571650D01*
X573879Y451420D01*
X575957Y452280D01*
X577741Y453649D01*
X579110Y455433D01*
X579970Y457511D01*
X580264Y459740D01*
X579970Y461969D01*
X579110Y464047D01*
X577741Y465831D01*
X575957Y467200D01*
X573879Y468060D01*
X571650Y468354D01*
X558650D01*
X556421Y468060D01*
X554343Y467200D01*
X553854Y466824D01*
X552715Y467386D01*
Y477494D01*
X553854Y478056D01*
X554343Y477680D01*
X556421Y476820D01*
X558650Y476526D01*
X571650D01*
X573879Y476820D01*
X575957Y477680D01*
X577741Y479049D01*
X579110Y480833D01*
X579970Y482911D01*
X580264Y485140D01*
X579970Y487369D01*
X579110Y489447D01*
X577741Y491231D01*
X575957Y492600D01*
X573879Y493460D01*
X571650Y493754D01*
X558650D01*
X556421Y493460D01*
X554343Y492600D01*
X553854Y492224D01*
X552715Y492786D01*
Y501370D01*
X552516Y502882D01*
X553655Y503609D01*
X554343Y503080D01*
X556421Y502220D01*
X558650Y501926D01*
X571650D01*
X573879Y502220D01*
X575957Y503080D01*
X577741Y504449D01*
X579110Y506233D01*
X579970Y508311D01*
X580264Y510540D01*
X579970Y512769D01*
X579110Y514847D01*
X577741Y516631D01*
X575957Y518000D01*
X573879Y518860D01*
X571650Y519154D01*
X560792D01*
X477668Y602278D01*
X476092Y603486D01*
X474258Y604246D01*
X472290Y604505D01*
D02*
G37*
G36*
X57010Y517850D02*
X54750D01*
X52568Y517265D01*
X50612Y516136D01*
X49014Y514538D01*
X47885Y512582D01*
X47300Y510400D01*
Y508140D01*
X47885Y505958D01*
X49014Y504002D01*
X50612Y502404D01*
X52568Y501275D01*
X54750Y500690D01*
X57010D01*
X59192Y501275D01*
X61148Y502404D01*
X62746Y504002D01*
X63875Y505958D01*
X64460Y508140D01*
Y510400D01*
X63875Y512582D01*
X62746Y514538D01*
X61148Y516136D01*
X59192Y517265D01*
X57010Y517850D01*
D02*
G37*
G36*
X802250Y509700D02*
X792480D01*
Y499430D01*
X802250D01*
Y509700D01*
D02*
G37*
G36*
X789940D02*
X780170D01*
Y499430D01*
X789940D01*
Y509700D01*
D02*
G37*
G36*
X621030Y502000D02*
X613260D01*
Y495730D01*
X621030D01*
Y502000D01*
D02*
G37*
G36*
X57150Y497812D02*
Y490540D01*
X64422D01*
X63875Y492582D01*
X62746Y494538D01*
X61148Y496136D01*
X59192Y497265D01*
X57150Y497812D01*
D02*
G37*
G36*
X54610Y497812D02*
X52568Y497265D01*
X50612Y496136D01*
X49014Y494538D01*
X47885Y492582D01*
X47338Y490540D01*
X54610D01*
Y497812D01*
D02*
G37*
G36*
X232410Y496222D02*
Y488950D01*
X239682D01*
X239135Y490992D01*
X238006Y492948D01*
X236408Y494546D01*
X234452Y495675D01*
X232410Y496222D01*
D02*
G37*
G36*
X229870D02*
X227828Y495675D01*
X225872Y494546D01*
X224274Y492948D01*
X223145Y490992D01*
X222598Y488950D01*
X229870D01*
Y496222D01*
D02*
G37*
G36*
X621030Y493190D02*
X613260D01*
Y486920D01*
X621030D01*
Y493190D01*
D02*
G37*
G36*
X802250Y496890D02*
X792480D01*
Y486620D01*
X802250D01*
Y496890D01*
D02*
G37*
G36*
X789940D02*
X780170D01*
Y486620D01*
X789940D01*
Y496890D01*
D02*
G37*
G36*
X64422Y488000D02*
X57150D01*
Y480728D01*
X59192Y481275D01*
X61148Y482404D01*
X62746Y484002D01*
X63875Y485958D01*
X64422Y488000D01*
D02*
G37*
G36*
X54610D02*
X47338D01*
X47885Y485958D01*
X49014Y484002D01*
X50612Y482404D01*
X52568Y481275D01*
X54610Y480728D01*
Y488000D01*
D02*
G37*
G36*
X150782Y487050D02*
X143510D01*
Y479778D01*
X145552Y480325D01*
X147508Y481454D01*
X149106Y483052D01*
X150235Y485008D01*
X150782Y487050D01*
D02*
G37*
G36*
X239682Y486410D02*
X232410D01*
Y479138D01*
X234452Y479685D01*
X236408Y480814D01*
X238006Y482412D01*
X239135Y484368D01*
X239682Y486410D01*
D02*
G37*
G36*
X229870D02*
X222598D01*
X223145Y484368D01*
X224274Y482412D01*
X225872Y480814D01*
X227828Y479685D01*
X229870Y479138D01*
Y486410D01*
D02*
G37*
G36*
X795700Y470660D02*
X787930D01*
Y464390D01*
X795700D01*
Y470660D01*
D02*
G37*
G36*
X785390D02*
X777620D01*
Y464390D01*
X785390D01*
Y470660D01*
D02*
G37*
G36*
X631340Y469390D02*
X623570D01*
Y463120D01*
X631340D01*
Y469390D01*
D02*
G37*
G36*
X621030D02*
X613260D01*
Y463120D01*
X621030D01*
Y469390D01*
D02*
G37*
G36*
X150820Y476900D02*
X133660D01*
Y459740D01*
X150820D01*
Y476900D01*
D02*
G37*
G36*
X268920Y477807D02*
X268920Y477807D01*
X231140D01*
X228519Y477462D01*
X226077Y476450D01*
X225829Y476260D01*
X222560D01*
Y472991D01*
X222370Y472743D01*
X221358Y470301D01*
X221013Y467680D01*
X221358Y465059D01*
X222370Y462617D01*
X222560Y462369D01*
Y459100D01*
X225829D01*
X226077Y458910D01*
X228519Y457898D01*
X231140Y457553D01*
X266809D01*
X269240Y457233D01*
X271861Y457578D01*
X274303Y458590D01*
X276401Y460199D01*
X278010Y462297D01*
X279022Y464739D01*
X279367Y467360D01*
X279022Y469981D01*
X278010Y472423D01*
X276401Y474521D01*
X276081Y474841D01*
X273983Y476450D01*
X271541Y477462D01*
X271236Y477502D01*
X268920Y477807D01*
D02*
G37*
G36*
X795700Y461850D02*
X787930D01*
Y455580D01*
X795700D01*
Y461850D01*
D02*
G37*
G36*
X631340Y460580D02*
X623570D01*
Y454310D01*
X631340D01*
Y460580D01*
D02*
G37*
G36*
X621030D02*
X613260D01*
Y454310D01*
X621030D01*
Y460580D01*
D02*
G37*
G36*
X753740Y437076D02*
X746470D01*
Y418306D01*
X753740D01*
Y437076D01*
D02*
G37*
G36*
X571650Y417554D02*
X558650D01*
X556421Y417260D01*
X554343Y416400D01*
X552559Y415031D01*
X551190Y413247D01*
X550330Y411169D01*
X550036Y408940D01*
X550330Y406711D01*
X551190Y404633D01*
X552559Y402849D01*
X554343Y401480D01*
X556421Y400620D01*
X558650Y400326D01*
X571650D01*
X573879Y400620D01*
X575957Y401480D01*
X577741Y402849D01*
X579110Y404633D01*
X579970Y406711D01*
X580264Y408940D01*
X579970Y411169D01*
X579110Y413247D01*
X577741Y415031D01*
X575957Y416400D01*
X573879Y417260D01*
X571650Y417554D01*
D02*
G37*
G36*
X1042781Y407830D02*
X1042570D01*
Y394060D01*
X1056340D01*
Y394271D01*
X1055762Y397177D01*
X1054628Y399914D01*
X1052982Y402377D01*
X1050888Y404472D01*
X1048424Y406118D01*
X1045687Y407252D01*
X1042781Y407830D01*
D02*
G37*
G36*
X1040030D02*
X1039819D01*
X1036913Y407252D01*
X1034176Y406118D01*
X1031713Y404472D01*
X1029618Y402377D01*
X1027972Y399914D01*
X1026838Y397177D01*
X1026260Y394271D01*
Y394060D01*
X1040030D01*
Y407830D01*
D02*
G37*
G36*
X250570Y402970D02*
X229490D01*
Y381890D01*
X250570D01*
Y402970D01*
D02*
G37*
G36*
X794698Y388280D02*
X786928D01*
Y381510D01*
X794698D01*
Y388280D01*
D02*
G37*
G36*
X784388D02*
X776618D01*
Y381510D01*
X784388D01*
Y388280D01*
D02*
G37*
G36*
X1056340Y391520D02*
X1042570D01*
Y377750D01*
X1042781D01*
X1045687Y378328D01*
X1048424Y379462D01*
X1050888Y381108D01*
X1052982Y383203D01*
X1054628Y385666D01*
X1055762Y388403D01*
X1056340Y391309D01*
Y391520D01*
D02*
G37*
G36*
X1040030D02*
X1026260D01*
Y391309D01*
X1026838Y388403D01*
X1027972Y385666D01*
X1029618Y383203D01*
X1031713Y381108D01*
X1034176Y379462D01*
X1036913Y378328D01*
X1039819Y377750D01*
X1040030D01*
Y391520D01*
D02*
G37*
G36*
X942781Y407830D02*
X939819D01*
X936913Y407252D01*
X934176Y406118D01*
X931713Y404472D01*
X929618Y402377D01*
X927972Y399914D01*
X926838Y397177D01*
X926260Y394271D01*
Y391309D01*
X926838Y388403D01*
X927972Y385666D01*
X929618Y383203D01*
X931713Y381108D01*
X934176Y379462D01*
X936913Y378328D01*
X939819Y377750D01*
X942781D01*
X945687Y378328D01*
X948424Y379462D01*
X950888Y381108D01*
X952982Y383203D01*
X954628Y385666D01*
X955762Y388403D01*
X956340Y391309D01*
Y394271D01*
X955762Y397177D01*
X954628Y399914D01*
X952982Y402377D01*
X950888Y404472D01*
X948424Y406118D01*
X945687Y407252D01*
X942781Y407830D01*
D02*
G37*
G36*
X571650Y392154D02*
X558650D01*
X556421Y391860D01*
X554343Y391000D01*
X552559Y389631D01*
X551190Y387847D01*
X550330Y385769D01*
X550036Y383540D01*
X550330Y381311D01*
X551190Y379233D01*
X552559Y377449D01*
X554343Y376080D01*
X556421Y375220D01*
X558650Y374926D01*
X571650D01*
X573879Y375220D01*
X575957Y376080D01*
X577741Y377449D01*
X579110Y379233D01*
X579970Y381311D01*
X580264Y383540D01*
X579970Y385769D01*
X579110Y387847D01*
X577741Y389631D01*
X575957Y391000D01*
X573879Y391860D01*
X571650Y392154D01*
D02*
G37*
G36*
X794698Y378970D02*
X786928D01*
Y372200D01*
X794698D01*
Y378970D01*
D02*
G37*
G36*
X784388D02*
X776618D01*
Y372200D01*
X784388D01*
Y378970D01*
D02*
G37*
G36*
X241418Y377570D02*
X241300D01*
Y368300D01*
X250570D01*
Y368418D01*
X249852Y371098D01*
X248464Y373502D01*
X246502Y375464D01*
X244098Y376852D01*
X241418Y377570D01*
D02*
G37*
G36*
X238760D02*
X238642D01*
X235962Y376852D01*
X233558Y375464D01*
X231596Y373502D01*
X230208Y371098D01*
X229490Y368418D01*
Y368300D01*
X238760D01*
Y377570D01*
D02*
G37*
G36*
X621460Y450817D02*
X621460Y450817D01*
X607060D01*
X604439Y450472D01*
X601997Y449460D01*
X599899Y447851D01*
X598290Y445753D01*
X597278Y443311D01*
X597145Y442299D01*
X596980Y441683D01*
Y441044D01*
X596933Y440690D01*
X596980Y440336D01*
Y439697D01*
X597145Y439081D01*
X597278Y438069D01*
X598290Y435627D01*
X599899Y433529D01*
X601997Y431920D01*
X604439Y430908D01*
X607060Y430563D01*
X618484D01*
X618964Y430364D01*
X622653Y426675D01*
Y386080D01*
X622998Y383459D01*
X623740Y381669D01*
Y366540D01*
X641820D01*
Y381669D01*
X642562Y383459D01*
X642907Y386080D01*
Y430870D01*
X642562Y433491D01*
X641550Y435933D01*
X639941Y438031D01*
X639940Y438031D01*
X631340Y446631D01*
Y447390D01*
X630466D01*
X628863Y448620D01*
X626421Y449632D01*
X625964Y449692D01*
X624081Y450472D01*
X623776Y450512D01*
X621460Y450817D01*
D02*
G37*
G36*
X250570Y365760D02*
X241300D01*
Y356490D01*
X241418D01*
X244098Y357208D01*
X246502Y358596D01*
X248464Y360558D01*
X249852Y362962D01*
X250570Y365642D01*
Y365760D01*
D02*
G37*
G36*
X238760D02*
X229490D01*
Y365642D01*
X230208Y362962D01*
X231596Y360558D01*
X233558Y358596D01*
X235962Y357208D01*
X238642Y356490D01*
X238760D01*
Y365760D01*
D02*
G37*
G36*
X54470Y370530D02*
X52210D01*
X50028Y369945D01*
X48072Y368816D01*
X46474Y367218D01*
X45345Y365262D01*
X44760Y363080D01*
Y360820D01*
X45345Y358638D01*
X46474Y356682D01*
X48072Y355084D01*
X50028Y353955D01*
X52210Y353370D01*
X54470D01*
X56652Y353955D01*
X58608Y355084D01*
X60206Y356682D01*
X61335Y358638D01*
X61920Y360820D01*
Y363080D01*
X61335Y365262D01*
X60206Y367218D01*
X58608Y368816D01*
X56652Y369945D01*
X54470Y370530D01*
D02*
G37*
G36*
X571650Y366754D02*
X558650D01*
X556421Y366460D01*
X554343Y365600D01*
X552559Y364231D01*
X551190Y362447D01*
X550330Y360369D01*
X550036Y358140D01*
X550330Y355911D01*
X551190Y353833D01*
X552559Y352049D01*
X554343Y350680D01*
X556421Y349820D01*
X558650Y349526D01*
X571650D01*
X573879Y349820D01*
X575957Y350680D01*
X577741Y352049D01*
X579110Y353833D01*
X579970Y355911D01*
X580264Y358140D01*
X579970Y360369D01*
X579110Y362447D01*
X577741Y364231D01*
X575957Y365600D01*
X573879Y366460D01*
X571650Y366754D01*
D02*
G37*
G36*
X741330Y362610D02*
X734060D01*
Y343840D01*
X741330D01*
Y362610D01*
D02*
G37*
G36*
X731520D02*
X724250D01*
Y343840D01*
X731520D01*
Y362610D01*
D02*
G37*
G36*
X54610Y350492D02*
Y343220D01*
X61882D01*
X61335Y345262D01*
X60206Y347218D01*
X58608Y348816D01*
X56652Y349945D01*
X54610Y350492D01*
D02*
G37*
G36*
X52070D02*
X50028Y349945D01*
X48072Y348816D01*
X46474Y347218D01*
X45345Y345262D01*
X44798Y343220D01*
X52070D01*
Y350492D01*
D02*
G37*
G36*
X144780Y349542D02*
Y342270D01*
X152052D01*
X151505Y344312D01*
X150376Y346268D01*
X148778Y347866D01*
X146822Y348995D01*
X144780Y349542D01*
D02*
G37*
G36*
X142240D02*
X140198Y348995D01*
X138242Y347866D01*
X136644Y346268D01*
X135515Y344312D01*
X134968Y342270D01*
X142240D01*
Y349542D01*
D02*
G37*
G36*
X863250Y354990D02*
X855980D01*
Y336220D01*
X863250D01*
Y354990D01*
D02*
G37*
G36*
X853440D02*
X846170D01*
Y336220D01*
X853440D01*
Y354990D01*
D02*
G37*
G36*
X61882Y340680D02*
X54610D01*
Y333408D01*
X56652Y333955D01*
X58608Y335084D01*
X60206Y336682D01*
X61335Y338638D01*
X61882Y340680D01*
D02*
G37*
G36*
X52070D02*
X44798D01*
X45345Y338638D01*
X46474Y336682D01*
X48072Y335084D01*
X50028Y333955D01*
X52070Y333408D01*
Y340680D01*
D02*
G37*
G36*
X142240Y339730D02*
X134968D01*
X135515Y337688D01*
X136644Y335732D01*
X138242Y334134D01*
X140198Y333005D01*
X142240Y332458D01*
Y339730D01*
D02*
G37*
G36*
X152052D02*
X144780D01*
Y332458D01*
X146822Y333005D01*
X148778Y334134D01*
X150376Y335732D01*
X151505Y337688D01*
X152052Y339730D01*
D02*
G37*
G36*
X241418Y352170D02*
X238642D01*
X235962Y351452D01*
X233558Y350064D01*
X231596Y348102D01*
X230208Y345698D01*
X229490Y343018D01*
Y340242D01*
X230208Y337562D01*
X231596Y335158D01*
X233558Y333196D01*
X235962Y331808D01*
X238642Y331090D01*
X241418D01*
X244098Y331808D01*
X246502Y333196D01*
X248464Y335158D01*
X249852Y337562D01*
X250570Y340242D01*
Y343018D01*
X249852Y345698D01*
X248464Y348102D01*
X246502Y350064D01*
X244098Y351452D01*
X241418Y352170D01*
D02*
G37*
G36*
X571650Y341354D02*
X558650D01*
X556421Y341060D01*
X554343Y340200D01*
X552559Y338831D01*
X551190Y337047D01*
X550330Y334969D01*
X550036Y332740D01*
X550330Y330511D01*
X551190Y328433D01*
X552559Y326649D01*
X554343Y325280D01*
X556421Y324420D01*
X558650Y324126D01*
X571650D01*
X573879Y324420D01*
X575957Y325280D01*
X577741Y326649D01*
X579110Y328433D01*
X579970Y330511D01*
X580264Y332740D01*
X579970Y334969D01*
X579110Y337047D01*
X577741Y338831D01*
X575957Y340200D01*
X573879Y341060D01*
X571650Y341354D01*
D02*
G37*
G36*
X741330Y341300D02*
X734060D01*
Y322530D01*
X741330D01*
Y341300D01*
D02*
G37*
G36*
X731520D02*
X724250D01*
Y322530D01*
X731520D01*
Y341300D01*
D02*
G37*
G36*
X863250Y333680D02*
X855980D01*
Y314910D01*
X863250D01*
Y333680D01*
D02*
G37*
G36*
X853440D02*
X846170D01*
Y314910D01*
X853440D01*
Y333680D01*
D02*
G37*
G36*
X61920Y330530D02*
X44760D01*
Y313370D01*
X61920D01*
Y330530D01*
D02*
G37*
G36*
X317650Y315954D02*
X304650D01*
X302421Y315660D01*
X300343Y314800D01*
X298559Y313431D01*
X297927Y313347D01*
X297173Y313926D01*
X295338Y314686D01*
X293370Y314945D01*
X291402Y314686D01*
X289568Y313926D01*
X287992Y312718D01*
X225332Y250058D01*
X224124Y248482D01*
X223364Y246648D01*
X223105Y244680D01*
Y222250D01*
X223170Y221756D01*
Y213210D01*
X238250D01*
Y221756D01*
X238315Y222250D01*
Y241530D01*
X298067Y301282D01*
X298559Y301249D01*
X300343Y299880D01*
X302421Y299020D01*
X304650Y298726D01*
X317650D01*
X319879Y299020D01*
X321957Y299880D01*
X323741Y301249D01*
X325110Y303033D01*
X325970Y305111D01*
X326264Y307340D01*
X325970Y309569D01*
X325110Y311647D01*
X323741Y313431D01*
X321957Y314800D01*
X319879Y315660D01*
X317650Y315954D01*
D02*
G37*
G36*
X241418Y326770D02*
X238642D01*
X235962Y326052D01*
X233558Y324664D01*
X231596Y322702D01*
X230208Y320298D01*
X229490Y317618D01*
Y314842D01*
X230208Y312162D01*
X231596Y309758D01*
X233558Y307796D01*
X235962Y306408D01*
X238642Y305690D01*
X241418D01*
X244098Y306408D01*
X246502Y307796D01*
X248464Y309758D01*
X249852Y312162D01*
X250570Y314842D01*
Y317618D01*
X249852Y320298D01*
X248464Y322702D01*
X246502Y324664D01*
X244098Y326052D01*
X241418Y326770D01*
D02*
G37*
G36*
Y301370D02*
X238642D01*
X235962Y300652D01*
X233558Y299264D01*
X231596Y297302D01*
X230208Y294898D01*
X229490Y292218D01*
Y289442D01*
X230208Y286762D01*
X231596Y284358D01*
X233558Y282396D01*
X235962Y281008D01*
X238642Y280290D01*
X241418D01*
X244098Y281008D01*
X246502Y282396D01*
X248464Y284358D01*
X249852Y286762D01*
X250570Y289442D01*
Y292218D01*
X249852Y294898D01*
X248464Y297302D01*
X246502Y299264D01*
X244098Y300652D01*
X241418Y301370D01*
D02*
G37*
G36*
X991000Y289433D02*
X988770D01*
Y275590D01*
X1005988D01*
X1005822Y277268D01*
X1004962Y280103D01*
X1003566Y282716D01*
X1001686Y285006D01*
X999396Y286886D01*
X996783Y288282D01*
X993948Y289142D01*
X991000Y289433D01*
D02*
G37*
G36*
X986230D02*
X984000D01*
X981052Y289142D01*
X978217Y288282D01*
X975604Y286886D01*
X973314Y285006D01*
X971434Y282716D01*
X970038Y280103D01*
X969178Y277268D01*
X969012Y275590D01*
X986230D01*
Y289433D01*
D02*
G37*
G36*
X317650Y290554D02*
X304650D01*
X302421Y290260D01*
X300343Y289400D01*
X298559Y288031D01*
X297190Y286247D01*
X296330Y284169D01*
X296036Y281940D01*
X296330Y279711D01*
X297190Y277633D01*
X298559Y275849D01*
X300343Y274480D01*
X302421Y273620D01*
X304650Y273326D01*
X317650D01*
X319879Y273620D01*
X321957Y274480D01*
X323741Y275849D01*
X325110Y277633D01*
X325970Y279711D01*
X326264Y281940D01*
X325970Y284169D01*
X325110Y286247D01*
X323741Y288031D01*
X321957Y289400D01*
X319879Y290260D01*
X317650Y290554D01*
D02*
G37*
G36*
X55880Y479397D02*
X53259Y479052D01*
X50817Y478040D01*
X50569Y477850D01*
X47300D01*
Y474581D01*
X47110Y474333D01*
X46098Y471891D01*
X45753Y469270D01*
Y402151D01*
X45753Y402150D01*
X46098Y399530D01*
X47110Y397087D01*
X48719Y394990D01*
X51963Y391746D01*
X51558Y390355D01*
X50028Y389945D01*
X48072Y388816D01*
X46474Y387218D01*
X45345Y385262D01*
X44760Y383080D01*
Y380820D01*
X45345Y378638D01*
X46474Y376682D01*
X48072Y375084D01*
X50028Y373955D01*
X52210Y373370D01*
X54470D01*
X56652Y373955D01*
X58608Y375084D01*
X60206Y376682D01*
X61335Y378638D01*
X61745Y380168D01*
X63136Y380573D01*
X84469Y359240D01*
Y343636D01*
X84469Y343636D01*
X84814Y341015D01*
X85826Y338572D01*
X87435Y336475D01*
X158021Y265889D01*
X158021Y265889D01*
X160118Y264280D01*
X162560Y263268D01*
X165181Y262923D01*
X222250D01*
X224871Y263268D01*
X227313Y264280D01*
X229411Y265889D01*
X231020Y267987D01*
X232032Y270429D01*
X232377Y273050D01*
X232032Y275671D01*
X231020Y278113D01*
X229411Y280211D01*
X227313Y281820D01*
X224871Y282832D01*
X222250Y283177D01*
X169376D01*
X141306Y311247D01*
X141792Y312420D01*
X152090D01*
Y313705D01*
X157480D01*
X157974Y313770D01*
X158473D01*
X158954Y313899D01*
X159448Y313964D01*
X159909Y314155D01*
X160390Y314284D01*
X160822Y314533D01*
X161283Y314724D01*
X161678Y315027D01*
X162110Y315277D01*
X162462Y315629D01*
X162858Y315932D01*
X163161Y316328D01*
X163514Y316680D01*
X163763Y317112D01*
X164066Y317507D01*
X164257Y317968D01*
X164506Y318400D01*
X164635Y318881D01*
X164826Y319342D01*
X164891Y319836D01*
X165020Y320317D01*
Y320816D01*
X165085Y321310D01*
X165020Y321804D01*
Y322303D01*
X164891Y322784D01*
X164826Y323278D01*
X164635Y323739D01*
X164506Y324220D01*
X164257Y324652D01*
X164066Y325112D01*
X163763Y325508D01*
X163514Y325940D01*
X163161Y326292D01*
X162858Y326688D01*
X162462Y326991D01*
X162110Y327343D01*
X161678Y327593D01*
X161283Y327896D01*
X160822Y328087D01*
X160390Y328336D01*
X159909Y328465D01*
X159448Y328656D01*
X158954Y328721D01*
X158473Y328850D01*
X157974D01*
X157480Y328915D01*
X152090D01*
Y329580D01*
X134930D01*
Y319282D01*
X133757Y318796D01*
X104722Y347830D01*
Y363435D01*
X104377Y366056D01*
X103366Y368498D01*
X101756Y370596D01*
X101756Y370596D01*
X66007Y406345D01*
Y469270D01*
X65662Y471891D01*
X64650Y474333D01*
X64460Y474581D01*
Y477850D01*
X61191D01*
X60943Y478040D01*
X58501Y479052D01*
X55880Y479397D01*
D02*
G37*
G36*
X1005988Y273050D02*
X988770D01*
Y259207D01*
X991000D01*
X993948Y259498D01*
X996783Y260358D01*
X999396Y261754D01*
X1001686Y263634D01*
X1003566Y265924D01*
X1004962Y268537D01*
X1005822Y271372D01*
X1005988Y273050D01*
D02*
G37*
G36*
X986230D02*
X969012D01*
X969178Y271372D01*
X970038Y268537D01*
X971434Y265924D01*
X973314Y263634D01*
X975604Y261754D01*
X978217Y260358D01*
X981052Y259498D01*
X984000Y259207D01*
X986230D01*
Y273050D01*
D02*
G37*
G36*
X317650Y265154D02*
X304650D01*
X302421Y264860D01*
X300343Y264000D01*
X298559Y262631D01*
X297190Y260847D01*
X296330Y258769D01*
X296036Y256540D01*
X296330Y254311D01*
X297190Y252233D01*
X298559Y250449D01*
X300343Y249080D01*
X302421Y248220D01*
X304650Y247926D01*
X317650D01*
X319879Y248220D01*
X321957Y249080D01*
X323741Y250449D01*
X325110Y252233D01*
X325970Y254311D01*
X326264Y256540D01*
X325970Y258769D01*
X325110Y260847D01*
X323741Y262631D01*
X321957Y264000D01*
X319879Y264860D01*
X317650Y265154D01*
D02*
G37*
G36*
X680070Y245770D02*
X674300D01*
Y241000D01*
X680070D01*
Y245770D01*
D02*
G37*
G36*
X571650Y239754D02*
X558650D01*
X556421Y239460D01*
X554343Y238600D01*
X552559Y237231D01*
X551190Y235447D01*
X550330Y233369D01*
X550036Y231140D01*
X550330Y228911D01*
X551190Y226833D01*
X552559Y225049D01*
X554343Y223680D01*
X556421Y222820D01*
X558650Y222526D01*
X571650D01*
X573879Y222820D01*
X575957Y223680D01*
X577741Y225049D01*
X579110Y226833D01*
X579970Y228911D01*
X580264Y231140D01*
X579970Y233369D01*
X579110Y235447D01*
X577741Y237231D01*
X575957Y238600D01*
X573879Y239460D01*
X571650Y239754D01*
D02*
G37*
G36*
X317650D02*
X304650D01*
X302421Y239460D01*
X300343Y238600D01*
X298559Y237231D01*
X297190Y235447D01*
X296330Y233369D01*
X296036Y231140D01*
X296330Y228911D01*
X297190Y226833D01*
X298559Y225049D01*
X300343Y223680D01*
X302421Y222820D01*
X304650Y222526D01*
X317650D01*
X319879Y222820D01*
X321957Y223680D01*
X323741Y225049D01*
X325110Y226833D01*
X325970Y228911D01*
X326264Y231140D01*
X325970Y233369D01*
X325110Y235447D01*
X323741Y237231D01*
X321957Y238600D01*
X319879Y239460D01*
X317650Y239754D01*
D02*
G37*
G36*
X692060Y228790D02*
X685790D01*
Y221520D01*
X692060D01*
Y228790D01*
D02*
G37*
G36*
X683250D02*
X676980D01*
Y221520D01*
X683250D01*
Y228790D01*
D02*
G37*
G36*
X991000Y251333D02*
X984000D01*
X981052Y251042D01*
X978217Y250182D01*
X975604Y248786D01*
X973314Y246906D01*
X971434Y244616D01*
X970038Y242003D01*
X969178Y239168D01*
X968887Y236220D01*
X969178Y233272D01*
X970038Y230437D01*
X971434Y227824D01*
X973314Y225534D01*
X975604Y223654D01*
X978217Y222258D01*
X981052Y221398D01*
X984000Y221107D01*
X991000D01*
X993948Y221398D01*
X996783Y222258D01*
X999396Y223654D01*
X1001686Y225534D01*
X1003566Y227824D01*
X1004962Y230437D01*
X1005822Y233272D01*
X1006113Y236220D01*
X1005822Y239168D01*
X1004962Y242003D01*
X1003566Y244616D01*
X1001686Y246906D01*
X999396Y248786D01*
X996783Y250182D01*
X993948Y251042D01*
X991000Y251333D01*
D02*
G37*
G36*
X99680Y218790D02*
X93910D01*
Y214020D01*
X99680D01*
Y218790D01*
D02*
G37*
G36*
X91370D02*
X85600D01*
Y214020D01*
X91370D01*
Y218790D01*
D02*
G37*
G36*
X64920D02*
X57150D01*
Y212520D01*
X64920D01*
Y218790D01*
D02*
G37*
G36*
X54610D02*
X46840D01*
Y212520D01*
X54610D01*
Y218790D01*
D02*
G37*
G36*
X692060Y218980D02*
X685790D01*
Y211710D01*
X692060D01*
Y218980D01*
D02*
G37*
G36*
X683250D02*
X676980D01*
Y211710D01*
X683250D01*
Y218980D01*
D02*
G37*
G36*
X571650Y214354D02*
X566420D01*
Y207010D01*
X580097D01*
X579970Y207969D01*
X579110Y210047D01*
X577741Y211831D01*
X575957Y213200D01*
X573879Y214060D01*
X571650Y214354D01*
D02*
G37*
G36*
X563880D02*
X558650D01*
X556421Y214060D01*
X554343Y213200D01*
X552559Y211831D01*
X551190Y210047D01*
X550330Y207969D01*
X550204Y207010D01*
X563880D01*
Y214354D01*
D02*
G37*
G36*
X317650D02*
X312420D01*
Y207010D01*
X326096D01*
X325970Y207969D01*
X325110Y210047D01*
X323741Y211831D01*
X321957Y213200D01*
X319879Y214060D01*
X317650Y214354D01*
D02*
G37*
G36*
X309880D02*
X304650D01*
X302421Y214060D01*
X300343Y213200D01*
X298559Y211831D01*
X297190Y210047D01*
X296330Y207969D01*
X296203Y207010D01*
X309880D01*
Y214354D01*
D02*
G37*
G36*
X99680Y211480D02*
X93910D01*
Y206710D01*
X99680D01*
Y211480D01*
D02*
G37*
G36*
X91370D02*
X85600D01*
Y206710D01*
X91370D01*
Y211480D01*
D02*
G37*
G36*
X64920Y209980D02*
X57150D01*
Y203710D01*
X64920D01*
Y209980D01*
D02*
G37*
G36*
X54610D02*
X46840D01*
Y203710D01*
X54610D01*
Y209980D01*
D02*
G37*
G36*
X580097Y204470D02*
X566420D01*
Y197126D01*
X571650D01*
X573879Y197420D01*
X575957Y198280D01*
X577741Y199649D01*
X579110Y201433D01*
X579970Y203511D01*
X580097Y204470D01*
D02*
G37*
G36*
X563880D02*
X550204D01*
X550330Y203511D01*
X551190Y201433D01*
X552559Y199649D01*
X554343Y198280D01*
X556421Y197420D01*
X558650Y197126D01*
X563880D01*
Y204470D01*
D02*
G37*
G36*
X326096D02*
X312420D01*
Y197126D01*
X317650D01*
X319879Y197420D01*
X321957Y198280D01*
X323741Y199649D01*
X325110Y201433D01*
X325970Y203511D01*
X326096Y204470D01*
D02*
G37*
G36*
X309880D02*
X296203D01*
X296330Y203511D01*
X297190Y201433D01*
X298559Y199649D01*
X300343Y198280D01*
X302421Y197420D01*
X304650Y197126D01*
X309880D01*
Y204470D01*
D02*
G37*
G36*
X255420Y189990D02*
X247650D01*
Y183720D01*
X255420D01*
Y189990D01*
D02*
G37*
G36*
Y181180D02*
X247650D01*
Y174910D01*
X255420D01*
Y181180D01*
D02*
G37*
G36*
X565150Y190467D02*
X504190D01*
X501569Y190122D01*
X499127Y189110D01*
X497029Y187501D01*
X495420Y185403D01*
X494408Y182961D01*
X494063Y180340D01*
X494408Y177719D01*
X495420Y175277D01*
X497029Y173179D01*
X499127Y171570D01*
X501569Y170558D01*
X504190Y170213D01*
X565150D01*
X567771Y170558D01*
X570213Y171570D01*
X570417Y171726D01*
X571650D01*
X573879Y172020D01*
X575957Y172880D01*
X577741Y174249D01*
X579110Y176033D01*
X579970Y178111D01*
X580264Y180340D01*
X579970Y182569D01*
X579110Y184647D01*
X577741Y186431D01*
X575957Y187800D01*
X573879Y188660D01*
X571650Y188954D01*
X570417D01*
X570213Y189110D01*
X567771Y190122D01*
X565150Y190467D01*
D02*
G37*
G36*
X195440Y244625D02*
X97910D01*
X95942Y244366D01*
X94108Y243606D01*
X92532Y242398D01*
X90990Y240855D01*
X55880D01*
X55386Y240790D01*
X46840D01*
Y225710D01*
X55386D01*
X55880Y225645D01*
X88210D01*
X88837Y225164D01*
X90672Y224404D01*
X92640Y224145D01*
X94608Y224404D01*
X96442Y225164D01*
X97154Y225710D01*
X99680D01*
Y228035D01*
X101060Y229415D01*
X108250D01*
X108600Y228290D01*
X108600D01*
Y224957D01*
X108294Y224218D01*
X108035Y222250D01*
X108294Y220282D01*
X108600Y219543D01*
Y216210D01*
X111126D01*
X111838Y215664D01*
X113672Y214904D01*
X115640Y214645D01*
X123677D01*
X124217Y213375D01*
X123564Y211798D01*
X123305Y209830D01*
Y142484D01*
X122876Y142055D01*
X121554Y139765D01*
X120870Y137212D01*
Y134568D01*
X121554Y132015D01*
X122876Y129725D01*
X124745Y127856D01*
X127035Y126534D01*
X129588Y125850D01*
X132232D01*
X134785Y126534D01*
X137075Y127856D01*
X137504Y128285D01*
X167221D01*
X201394Y94112D01*
X202969Y92904D01*
X204803Y92144D01*
X206772Y91885D01*
X246380D01*
X246874Y91950D01*
X255420D01*
Y107030D01*
X246874D01*
X246380Y107095D01*
X209922D01*
X175749Y141268D01*
X174174Y142476D01*
X172340Y143236D01*
X170371Y143495D01*
X138515D01*
Y206680D01*
X141775Y209940D01*
X154100D01*
X154973Y209032D01*
Y177700D01*
X154973Y177700D01*
X155318Y175079D01*
X156330Y172637D01*
X157939Y170539D01*
X196870Y131609D01*
Y125850D01*
X206252D01*
X206910Y125763D01*
X207568Y125850D01*
X216950D01*
Y128285D01*
X227330D01*
X237340Y118275D01*
Y113950D01*
X244386D01*
X244880Y113885D01*
X246380D01*
X246874Y113950D01*
X255420D01*
Y129030D01*
X248095D01*
X235858Y141268D01*
X234282Y142476D01*
X232448Y143236D01*
X230480Y143495D01*
X216950D01*
Y145930D01*
X211191D01*
X175227Y181895D01*
Y209940D01*
X178870D01*
X235521Y153289D01*
X235521Y153289D01*
X237618Y151680D01*
X240060Y150668D01*
X242681Y150323D01*
X257760D01*
X257760Y150323D01*
X260381Y150668D01*
X262823Y151680D01*
X264921Y153289D01*
X280345Y168713D01*
X309650D01*
X309650Y168713D01*
X312271Y169058D01*
X314713Y170070D01*
X316811Y171679D01*
X316858Y171726D01*
X317650D01*
X319879Y172020D01*
X321957Y172880D01*
X323741Y174249D01*
X325110Y176033D01*
X325970Y178111D01*
X326264Y180340D01*
X325970Y182569D01*
X325110Y184647D01*
X323741Y186431D01*
X321957Y187800D01*
X319879Y188660D01*
X317650Y188954D01*
X316417D01*
X316213Y189110D01*
X313771Y190122D01*
X311150Y190467D01*
X308529Y190122D01*
X306087Y189110D01*
X305900Y188967D01*
X276150D01*
X273529Y188622D01*
X271087Y187610D01*
X268989Y186001D01*
X268989Y186000D01*
X253565Y170577D01*
X246876D01*
X243716Y173737D01*
X244202Y174910D01*
X245110D01*
Y182450D01*
Y189990D01*
X237340D01*
Y181772D01*
X236167Y181286D01*
X205416Y212037D01*
X205902Y213210D01*
X216250D01*
Y221756D01*
X216315Y222250D01*
Y223750D01*
X216250Y224244D01*
Y231290D01*
X211925D01*
X200818Y242398D01*
X199242Y243606D01*
X197408Y244366D01*
X195440Y244625D01*
D02*
G37*
G36*
X611220Y183030D02*
X604950D01*
Y173990D01*
Y164950D01*
X611220D01*
Y173496D01*
X611285Y173990D01*
Y175260D01*
X611220Y175754D01*
Y183030D01*
D02*
G37*
G36*
X602410D02*
X596140D01*
Y182865D01*
X590550D01*
X590056Y182800D01*
X589557D01*
X589076Y182671D01*
X588582Y182606D01*
X588121Y182415D01*
X587640Y182286D01*
X587208Y182037D01*
X586748Y181846D01*
X586352Y181543D01*
X585920Y181294D01*
X585568Y180941D01*
X585172Y180638D01*
X584869Y180242D01*
X584516Y179890D01*
X584267Y179458D01*
X583964Y179062D01*
X583773Y178602D01*
X583524Y178170D01*
X583395Y177689D01*
X583204Y177228D01*
X583139Y176734D01*
X583010Y176253D01*
Y175754D01*
X582945Y175260D01*
X583010Y174766D01*
Y174267D01*
X583139Y173786D01*
X583204Y173292D01*
X583395Y172831D01*
X583524Y172350D01*
X583773Y171918D01*
X583964Y171458D01*
X584267Y171062D01*
X584516Y170630D01*
X584869Y170278D01*
X585172Y169882D01*
X585568Y169579D01*
X585920Y169226D01*
X586352Y168977D01*
X586748Y168674D01*
X587208Y168483D01*
X587640Y168234D01*
X588121Y168105D01*
X588582Y167914D01*
X589076Y167849D01*
X589557Y167720D01*
X590056D01*
X590550Y167655D01*
X596140D01*
Y164950D01*
X602410D01*
Y173990D01*
Y183030D01*
D02*
G37*
G36*
X633220D02*
X618140D01*
Y174484D01*
X618075Y173990D01*
X618140Y173496D01*
Y164950D01*
X633220D01*
Y166385D01*
X648210D01*
Y163680D01*
X663290D01*
Y172226D01*
X663355Y172720D01*
Y173990D01*
X663290Y174484D01*
Y181760D01*
X648210D01*
Y181595D01*
X633220D01*
Y183030D01*
D02*
G37*
G36*
X769271Y175700D02*
X766309D01*
X763403Y175122D01*
X760666Y173988D01*
X758203Y172342D01*
X756108Y170247D01*
X754462Y167784D01*
X753328Y165047D01*
X752750Y162141D01*
Y159941D01*
X746765Y153957D01*
X733110D01*
Y155370D01*
X711030D01*
Y132290D01*
X733110D01*
Y133703D01*
X750960D01*
X750960Y133703D01*
X753581Y134048D01*
X756023Y135060D01*
X758121Y136669D01*
X767071Y145620D01*
X769271D01*
X772177Y146198D01*
X774914Y147332D01*
X777377Y148978D01*
X779472Y151073D01*
X781118Y153536D01*
X782252Y156273D01*
X782830Y159179D01*
Y162141D01*
X782252Y165047D01*
X781118Y167784D01*
X779472Y170247D01*
X777377Y172342D01*
X774914Y173988D01*
X772177Y175122D01*
X769271Y175700D01*
D02*
G37*
G36*
X991000Y166883D02*
X988770D01*
Y153040D01*
X1005988D01*
X1005822Y154718D01*
X1004962Y157553D01*
X1003566Y160166D01*
X1001686Y162456D01*
X999396Y164336D01*
X996783Y165732D01*
X993948Y166592D01*
X991000Y166883D01*
D02*
G37*
G36*
X986230D02*
X984000D01*
X981052Y166592D01*
X978217Y165732D01*
X975604Y164336D01*
X973314Y162456D01*
X971434Y160166D01*
X970038Y157553D01*
X969178Y154718D01*
X969012Y153040D01*
X986230D01*
Y166883D01*
D02*
G37*
G36*
X613560Y158240D02*
X605790D01*
Y151970D01*
X613560D01*
Y158240D01*
D02*
G37*
G36*
X603250D02*
X595480D01*
Y151970D01*
X603250D01*
Y158240D01*
D02*
G37*
G36*
X613560Y149430D02*
X605790D01*
Y143160D01*
X613560D01*
Y149430D01*
D02*
G37*
G36*
X603250D02*
X595480D01*
Y143160D01*
X603250D01*
Y149430D01*
D02*
G37*
G36*
X1005988Y150500D02*
X988770D01*
Y136657D01*
X991000D01*
X993948Y136948D01*
X996783Y137808D01*
X999396Y139204D01*
X1001686Y141084D01*
X1003566Y143374D01*
X1004962Y145987D01*
X1005822Y148822D01*
X1005988Y150500D01*
D02*
G37*
G36*
X986230D02*
X969012D01*
X969178Y148822D01*
X970038Y145987D01*
X971434Y143374D01*
X973314Y141084D01*
X975604Y139204D01*
X978217Y137808D01*
X981052Y136948D01*
X984000Y136657D01*
X986230D01*
Y150500D01*
D02*
G37*
G36*
X680780Y129260D02*
X675010D01*
Y124490D01*
X680780D01*
Y129260D01*
D02*
G37*
G36*
X672470D02*
X666700D01*
Y124490D01*
X672470D01*
Y129260D01*
D02*
G37*
G36*
X680780Y121950D02*
X675010D01*
Y117180D01*
X680780D01*
Y121950D01*
D02*
G37*
G36*
X672470D02*
X666700D01*
Y117180D01*
X672470D01*
Y121950D01*
D02*
G37*
G36*
X809690Y194365D02*
X690290D01*
X688322Y194106D01*
X687247Y193661D01*
X686488Y193346D01*
X684912Y192138D01*
X674535Y181760D01*
X670210D01*
Y174714D01*
X670145Y174220D01*
Y163768D01*
X668742Y162365D01*
X644370D01*
X642402Y162106D01*
X641327Y161661D01*
X640567Y161346D01*
X638992Y160138D01*
X637095Y158240D01*
X629770D01*
Y143160D01*
X638316D01*
X638810Y143095D01*
X640310D01*
X640804Y143160D01*
X647850D01*
Y147155D01*
X655815D01*
X655942Y146899D01*
X656317Y145885D01*
X655614Y144188D01*
X655355Y142220D01*
X655614Y140252D01*
X656374Y138418D01*
X657582Y136842D01*
X659157Y135634D01*
X660992Y134874D01*
X662960Y134615D01*
X680700D01*
X682668Y134874D01*
X684502Y135634D01*
X686078Y136842D01*
X688737Y139502D01*
X689700Y138669D01*
X689700Y137528D01*
Y135427D01*
X689394Y134688D01*
X689135Y132720D01*
Y129660D01*
X689394Y127692D01*
X689700Y126953D01*
Y126680D01*
X689813D01*
X690154Y125857D01*
X691362Y124282D01*
X711030Y104615D01*
Y92290D01*
X733110D01*
Y96225D01*
X753901D01*
X755869Y96484D01*
X757704Y97244D01*
X759279Y98452D01*
X761014Y100188D01*
X763403Y99198D01*
X766309Y98620D01*
X769271D01*
X772177Y99198D01*
X774914Y100332D01*
X777377Y101978D01*
X779472Y104073D01*
X781118Y106536D01*
X782252Y109273D01*
X782830Y112179D01*
Y115141D01*
X782252Y118047D01*
X781118Y120784D01*
X779472Y123247D01*
X777377Y125342D01*
X774914Y126988D01*
X772177Y128122D01*
X769271Y128700D01*
X766309D01*
X763403Y128122D01*
X760666Y126988D01*
X758203Y125342D01*
X756108Y123247D01*
X754462Y120784D01*
X753328Y118047D01*
X752750Y115141D01*
Y113434D01*
X750751Y111435D01*
X733110D01*
Y115370D01*
X721785D01*
X704331Y132824D01*
X704086Y134688D01*
X703780Y135427D01*
Y138760D01*
X701254D01*
X700543Y139306D01*
X698708Y140066D01*
X696740Y140325D01*
X694772Y140066D01*
X692937Y139306D01*
X692226Y138760D01*
X689791Y138760D01*
X688958Y139723D01*
X708118Y158882D01*
X709326Y160457D01*
X710086Y162292D01*
X710269Y163680D01*
X710280D01*
Y163766D01*
X710345Y164260D01*
Y172720D01*
X710280Y173214D01*
Y179155D01*
X717200D01*
Y173214D01*
X717135Y172720D01*
X717200Y172226D01*
Y163680D01*
X732280D01*
Y165115D01*
X736600D01*
X737094Y165180D01*
X737593D01*
X738074Y165309D01*
X738568Y165374D01*
X739029Y165565D01*
X739510Y165694D01*
X739942Y165943D01*
X740403Y166134D01*
X740798Y166437D01*
X741230Y166686D01*
X741582Y167039D01*
X741978Y167342D01*
X742281Y167738D01*
X742634Y168090D01*
X742883Y168522D01*
X743186Y168918D01*
X743377Y169378D01*
X743626Y169810D01*
X743755Y170291D01*
X743946Y170752D01*
X744011Y171246D01*
X744140Y171727D01*
Y172226D01*
X744205Y172720D01*
X744140Y173214D01*
Y173713D01*
X744011Y174194D01*
X743946Y174688D01*
X743755Y175149D01*
X743626Y175630D01*
X743377Y176062D01*
X743186Y176523D01*
X742883Y176918D01*
X742634Y177350D01*
X742281Y177702D01*
X742141Y177885D01*
X742356Y178663D01*
X742686Y179155D01*
X806540D01*
X868215Y117480D01*
X867750Y115141D01*
Y112179D01*
X868328Y109273D01*
X869462Y106536D01*
X871108Y104073D01*
X873203Y101978D01*
X875666Y100332D01*
X878403Y99198D01*
X881309Y98620D01*
X884271D01*
X887177Y99198D01*
X889914Y100332D01*
X892377Y101978D01*
X894472Y104073D01*
X896118Y106536D01*
X897252Y109273D01*
X897830Y112179D01*
Y115141D01*
X897252Y118047D01*
X896118Y120784D01*
X894472Y123247D01*
X892377Y125342D01*
X889914Y126988D01*
X887177Y128122D01*
X884271Y128700D01*
X881309D01*
X878970Y128235D01*
X815068Y192138D01*
X813493Y193346D01*
X811658Y194106D01*
X809690Y194365D01*
D02*
G37*
G36*
X317650Y366754D02*
X304650D01*
X302421Y366460D01*
X300343Y365600D01*
X298559Y364231D01*
X297190Y362447D01*
X296330Y360369D01*
X296036Y358140D01*
X296330Y355911D01*
X297190Y353833D01*
X298559Y352049D01*
X300343Y350680D01*
X302421Y349820D01*
X304650Y349526D01*
X317650D01*
X319879Y349820D01*
X321957Y350680D01*
X323741Y352049D01*
X324471Y353001D01*
X464709D01*
X550443Y267266D01*
X552111Y266152D01*
X554077Y265761D01*
X555277D01*
X555530Y264491D01*
X554343Y264000D01*
X552559Y262631D01*
X551190Y260847D01*
X550330Y258769D01*
X550036Y256540D01*
X550330Y254311D01*
X551190Y252233D01*
X552559Y250449D01*
X554343Y249080D01*
X556421Y248220D01*
X558650Y247926D01*
X569509D01*
X582782Y234652D01*
X584357Y233444D01*
X586192Y232684D01*
X588160Y232425D01*
X596374D01*
X596700Y231290D01*
X596700D01*
Y222744D01*
X596635Y222250D01*
Y220750D01*
X596700Y220256D01*
Y213210D01*
X601025D01*
X612902Y201332D01*
X614478Y200124D01*
X616312Y199364D01*
X618280Y199105D01*
X659643D01*
X661611Y199364D01*
X663446Y200124D01*
X665021Y201332D01*
X669438Y205749D01*
X670646Y207324D01*
X671406Y209158D01*
X671665Y211127D01*
Y229373D01*
X671406Y231341D01*
X670646Y233176D01*
X669438Y234751D01*
X668595Y235593D01*
Y241000D01*
X671760D01*
Y247040D01*
X673030D01*
Y248310D01*
X680070D01*
Y253080D01*
X672485D01*
X671999Y254253D01*
X677745Y260000D01*
X680070D01*
Y263333D01*
X680376Y264072D01*
X680532Y265257D01*
X690085Y274810D01*
X690623Y274623D01*
X691226Y274155D01*
X690913Y271780D01*
X691258Y269159D01*
X692270Y266717D01*
X693550Y265049D01*
X693358Y263774D01*
X693209Y263533D01*
X692227Y263126D01*
X691516Y262580D01*
X688990D01*
Y259247D01*
X688684Y258508D01*
X688425Y256540D01*
Y256020D01*
X688684Y254052D01*
X688990Y253313D01*
Y250500D01*
X690795D01*
X710320Y230975D01*
Y218650D01*
X732400D01*
Y222585D01*
X757001D01*
X758969Y222844D01*
X759613Y223111D01*
X759956Y222882D01*
X762693Y221748D01*
X765599Y221170D01*
X768561D01*
X771467Y221748D01*
X774204Y222882D01*
X776667Y224528D01*
X778762Y226623D01*
X780408Y229086D01*
X781542Y231823D01*
X782120Y234729D01*
Y237691D01*
X781542Y240597D01*
X780408Y243334D01*
X778762Y245797D01*
X776667Y247892D01*
X774204Y249538D01*
X771467Y250672D01*
X768561Y251250D01*
X765599D01*
X762693Y250672D01*
X759956Y249538D01*
X757493Y247892D01*
X755398Y245797D01*
X753752Y243334D01*
X752618Y240597D01*
X752061Y237795D01*
X732400D01*
Y241730D01*
X721075D01*
X703070Y259735D01*
Y261653D01*
X710320D01*
Y258650D01*
X732400D01*
Y260063D01*
X752360D01*
X752360Y260063D01*
X754981Y260408D01*
X757423Y261420D01*
X759521Y263029D01*
X764817Y268326D01*
X765599Y268170D01*
X767799D01*
X829459Y206509D01*
X829459Y206509D01*
X831557Y204900D01*
X833999Y203888D01*
X836620Y203543D01*
X891416D01*
X891416Y203543D01*
X894037Y203888D01*
X896480Y204900D01*
X898577Y206509D01*
X918151Y226083D01*
X940937D01*
X942308Y224712D01*
Y124448D01*
X941108Y123247D01*
X939462Y120784D01*
X938328Y118047D01*
X937750Y115141D01*
Y112179D01*
X938328Y109273D01*
X939462Y106536D01*
X941108Y104073D01*
X943203Y101978D01*
X945666Y100332D01*
X948403Y99198D01*
X951309Y98620D01*
X954271D01*
X957177Y99198D01*
X959914Y100332D01*
X962377Y101978D01*
X964472Y104073D01*
X966118Y106536D01*
X967252Y109273D01*
X967782Y111937D01*
X969064Y111874D01*
X969178Y110722D01*
X970038Y107887D01*
X971434Y105274D01*
X973314Y102984D01*
X975604Y101104D01*
X978217Y99708D01*
X981052Y98848D01*
X984000Y98557D01*
X991000D01*
X993948Y98848D01*
X996783Y99708D01*
X999396Y101104D01*
X1001686Y102984D01*
X1003566Y105274D01*
X1004962Y107887D01*
X1005822Y110722D01*
X1006113Y113670D01*
X1005822Y116618D01*
X1004962Y119453D01*
X1003566Y122066D01*
X1001686Y124356D01*
X999396Y126236D01*
X996783Y127632D01*
X993948Y128492D01*
X991000Y128783D01*
X984000D01*
X981052Y128492D01*
X978217Y127632D01*
X975604Y126236D01*
X973314Y124356D01*
X971434Y122066D01*
X970038Y119453D01*
X969178Y116618D01*
X969063Y115453D01*
X967781Y115390D01*
X967252Y118047D01*
X966118Y120784D01*
X964472Y123247D01*
X962562Y125158D01*
Y225422D01*
X963762Y226623D01*
X965408Y229086D01*
X966542Y231823D01*
X967120Y234729D01*
Y237691D01*
X966542Y240597D01*
X965408Y243334D01*
X963762Y245797D01*
X961667Y247892D01*
X959204Y249538D01*
X956467Y250672D01*
X953561Y251250D01*
X950599D01*
X947693Y250672D01*
X944956Y249538D01*
X942493Y247892D01*
X940937Y246337D01*
X913957D01*
X913956Y246337D01*
X911335Y245992D01*
X908893Y244980D01*
X906796Y243371D01*
X898390Y234965D01*
X897120Y235491D01*
Y237691D01*
X896542Y240597D01*
X895408Y243334D01*
X893762Y245797D01*
X891667Y247892D01*
X889204Y249538D01*
X886467Y250672D01*
X883561Y251250D01*
X880599D01*
X878260Y250785D01*
X811178Y317868D01*
X809603Y319076D01*
X807768Y319836D01*
X805800Y320095D01*
X722334D01*
X722323Y320103D01*
X721849Y320837D01*
X721653Y321365D01*
X721787Y321688D01*
X722036Y322120D01*
X722165Y322601D01*
X722356Y323062D01*
X722421Y323556D01*
X722550Y324037D01*
Y324536D01*
X722615Y325030D01*
X722550Y325524D01*
Y326023D01*
X722421Y326504D01*
X722356Y326998D01*
X722165Y327459D01*
X722036Y327940D01*
X721787Y328372D01*
X721596Y328833D01*
X721293Y329228D01*
X721043Y329660D01*
X720691Y330012D01*
X720388Y330408D01*
X719992Y330711D01*
X719640Y331063D01*
X719208Y331313D01*
X718812Y331616D01*
X718352Y331807D01*
X717920Y332056D01*
X717439Y332185D01*
X716978Y332376D01*
X716484Y332441D01*
X716003Y332570D01*
X715504D01*
X715010Y332635D01*
X598080D01*
X596112Y332376D01*
X594277Y331616D01*
X592702Y330408D01*
X580797Y318502D01*
X579589Y316927D01*
X578829Y315093D01*
X578714Y314223D01*
X578514Y314060D01*
X577367Y313718D01*
X575957Y314800D01*
X573879Y315660D01*
X571650Y315954D01*
X558650D01*
X556421Y315660D01*
X554343Y314800D01*
X552559Y313431D01*
X551190Y311647D01*
X550330Y309569D01*
X550036Y307340D01*
X550330Y305111D01*
X551190Y303033D01*
X552559Y301249D01*
X554343Y299880D01*
X556421Y299020D01*
X558650Y298726D01*
X571650D01*
X573879Y299020D01*
X575957Y299880D01*
X576294Y300139D01*
X577683Y299604D01*
X577735Y299321D01*
X568967Y290554D01*
X558650D01*
X556421Y290260D01*
X554343Y289400D01*
X552559Y288031D01*
X551190Y286247D01*
X550330Y284169D01*
X550255Y283600D01*
X549052Y283192D01*
X470471Y361774D01*
X468804Y362888D01*
X466837Y363279D01*
X324471D01*
X323741Y364231D01*
X321957Y365600D01*
X319879Y366460D01*
X317650Y366754D01*
D02*
G37*
G36*
X634490Y104930D02*
X628220D01*
Y97160D01*
X634490D01*
Y104930D01*
D02*
G37*
G36*
X625680D02*
X619410D01*
Y97160D01*
X625680D01*
Y104930D01*
D02*
G37*
G36*
X692770Y102430D02*
X686500D01*
Y95160D01*
X692770D01*
Y102430D01*
D02*
G37*
G36*
X683960D02*
X677690D01*
Y95160D01*
X683960D01*
Y102430D01*
D02*
G37*
G36*
X634490Y94620D02*
X628220D01*
Y86850D01*
X634490D01*
Y94620D01*
D02*
G37*
G36*
X625680D02*
X619410D01*
Y86850D01*
X625680D01*
Y94620D01*
D02*
G37*
G36*
X604520Y116825D02*
X602552Y116566D01*
X600718Y115806D01*
X599142Y114598D01*
X597934Y113022D01*
X597174Y111188D01*
X596915Y109220D01*
X597174Y107252D01*
X597345Y106839D01*
Y95890D01*
X597410Y95396D01*
Y86850D01*
X612490D01*
Y95396D01*
X612555Y95890D01*
Y108790D01*
X612296Y110758D01*
X611851Y111833D01*
X611536Y112592D01*
X610328Y114168D01*
X609898Y114598D01*
X608322Y115806D01*
X606488Y116566D01*
X604520Y116825D01*
D02*
G37*
G36*
X692770Y92620D02*
X686500D01*
Y85350D01*
X692770D01*
Y92620D01*
D02*
G37*
G36*
X683960D02*
X677690D01*
Y85350D01*
X683960D01*
Y92620D01*
D02*
G37*
G36*
X317650Y341354D02*
X304650D01*
X302421Y341060D01*
X300343Y340200D01*
X298559Y338831D01*
X297190Y337047D01*
X296330Y334969D01*
X296036Y332740D01*
X296330Y330511D01*
X297190Y328433D01*
X298559Y326649D01*
X300343Y325280D01*
X302421Y324420D01*
X304650Y324126D01*
X315508D01*
X516312Y123322D01*
X517887Y122114D01*
X519722Y121354D01*
X521690Y121095D01*
X637160D01*
X644625Y113630D01*
Y93890D01*
X644690Y93396D01*
Y85350D01*
X659770D01*
Y93396D01*
X659835Y93890D01*
Y116780D01*
X659576Y118748D01*
X659131Y119823D01*
X658816Y120583D01*
X657608Y122158D01*
X647850Y131915D01*
Y136240D01*
X640804D01*
X640310Y136305D01*
X524840D01*
X325825Y335320D01*
X325110Y337047D01*
X323741Y338831D01*
X321957Y340200D01*
X319879Y341060D01*
X317650Y341354D01*
D02*
G37*
G36*
X1064084Y65600D02*
X1059356D01*
X1054686Y64860D01*
X1050189Y63399D01*
X1045976Y61252D01*
X1042150Y58473D01*
X1038807Y55130D01*
X1036028Y51304D01*
X1033881Y47091D01*
X1032420Y42594D01*
X1031680Y37924D01*
Y33196D01*
X1032420Y28526D01*
X1033881Y24029D01*
X1036028Y19816D01*
X1038807Y15990D01*
X1042150Y12647D01*
X1045976Y9868D01*
X1050189Y7721D01*
X1054686Y6260D01*
X1059356Y5520D01*
X1064084D01*
X1068754Y6260D01*
X1073251Y7721D01*
X1077464Y9868D01*
X1081290Y12647D01*
X1084633Y15990D01*
X1087412Y19816D01*
X1089559Y24029D01*
X1091020Y28526D01*
X1091760Y33196D01*
Y37924D01*
X1091020Y42594D01*
X1089559Y47091D01*
X1087412Y51304D01*
X1084633Y55130D01*
X1081290Y58473D01*
X1077464Y61252D01*
X1073251Y63399D01*
X1068754Y64860D01*
X1064084Y65600D01*
D02*
G37*
G36*
X35384D02*
X30656D01*
X25986Y64860D01*
X21489Y63399D01*
X17276Y61252D01*
X13450Y58473D01*
X10107Y55130D01*
X7327Y51304D01*
X5181Y47091D01*
X3720Y42594D01*
X2980Y37924D01*
Y33196D01*
X3720Y28526D01*
X5181Y24029D01*
X7327Y19816D01*
X10107Y15990D01*
X13450Y12647D01*
X17276Y9868D01*
X21489Y7721D01*
X25986Y6260D01*
X30656Y5520D01*
X35384D01*
X40054Y6260D01*
X44551Y7721D01*
X48764Y9868D01*
X52590Y12647D01*
X55933Y15990D01*
X58713Y19816D01*
X60859Y24029D01*
X62320Y28526D01*
X63060Y33196D01*
Y37924D01*
X62320Y42594D01*
X60859Y47091D01*
X58713Y51304D01*
X55933Y55130D01*
X52590Y58473D01*
X48764Y61252D01*
X44551Y63399D01*
X40054Y64860D01*
X35384Y65600D01*
D02*
G37*
%LPD*%
G36*
X956576Y558537D02*
X970230Y541915D01*
X970230Y491293D01*
X960335Y481397D01*
X952396Y481305D01*
X951916Y481204D01*
X951434Y481108D01*
X951422Y481100D01*
X951407Y481097D01*
X951002Y480820D01*
X950594Y480547D01*
X948740Y478692D01*
X947470Y479218D01*
Y505657D01*
X950521Y508709D01*
X951083Y509549D01*
X951280Y510540D01*
Y546100D01*
X951083Y547091D01*
X950521Y547931D01*
X941561Y556892D01*
X941155Y557163D01*
X940753Y557439D01*
X940735Y557443D01*
X940721Y557453D01*
X940242Y557548D01*
X940454Y558802D01*
X956576Y558537D01*
D02*
G37*
G36*
X1013460Y581660D02*
Y519430D01*
X1062990Y469900D01*
Y433070D01*
X1051560Y421640D01*
X1036320D01*
X1000760Y457200D01*
X953477D01*
X949960Y461771D01*
Y476250D01*
X952426Y478716D01*
X961420Y478820D01*
X972820Y490220D01*
X972820Y542842D01*
X957817Y561107D01*
X845718Y562943D01*
X843853Y566608D01*
X842010Y570230D01*
X836902Y580269D01*
X836970Y602020D01*
X848360Y613410D01*
X981710D01*
X1013460Y581660D01*
D02*
G37*
G36*
X939729Y555061D02*
X948690Y546100D01*
Y510540D01*
X944880Y506730D01*
Y455930D01*
X960120Y440690D01*
Y430530D01*
X951230Y421640D01*
X935990D01*
X925830Y431800D01*
Y501650D01*
X913130Y514350D01*
X849630D01*
X842010Y521970D01*
Y546100D01*
X852170Y556260D01*
X939729Y555061D01*
D02*
G37*
G36*
X318524Y563865D02*
X317871Y562595D01*
X217601D01*
X217038Y563865D01*
X217356Y564215D01*
X318274D01*
X318524Y563865D01*
D02*
G37*
G36*
X319845Y545653D02*
X319359Y544480D01*
X296110D01*
Y529981D01*
X294966Y529618D01*
X294840Y529630D01*
X294573Y529978D01*
X294324Y530410D01*
X293971Y530762D01*
X293668Y531158D01*
X278710Y546115D01*
X279236Y547385D01*
X318113D01*
X319845Y545653D01*
D02*
G37*
G36*
X323585Y518186D02*
X322446Y517624D01*
X321957Y518000D01*
X319879Y518860D01*
X317650Y519154D01*
X304650D01*
X302421Y518860D01*
X300343Y518000D01*
X298559Y516631D01*
X297190Y514847D01*
X296330Y512769D01*
X296036Y510540D01*
X296330Y508311D01*
X297190Y506233D01*
X298559Y504449D01*
X300343Y503080D01*
X302421Y502220D01*
X304650Y501926D01*
X317650D01*
X319879Y502220D01*
X321957Y503080D01*
X322446Y503456D01*
X323585Y502894D01*
Y492786D01*
X322446Y492224D01*
X321957Y492600D01*
X319879Y493460D01*
X317650Y493754D01*
X304650D01*
X302421Y493460D01*
X300343Y492600D01*
X298559Y491231D01*
X298435Y491069D01*
X297165Y491500D01*
Y501650D01*
X296906Y503618D01*
X296146Y505453D01*
X294938Y507028D01*
X283803Y518163D01*
X284487Y519194D01*
X284948Y519003D01*
X285380Y518754D01*
X285861Y518625D01*
X286322Y518434D01*
X286816Y518369D01*
X287297Y518240D01*
X287796D01*
X288290Y518175D01*
X288784Y518240D01*
X289283D01*
X289764Y518369D01*
X290258Y518434D01*
X290719Y518625D01*
X291200Y518754D01*
X291632Y519003D01*
X292092Y519194D01*
X292488Y519497D01*
X292920Y519747D01*
X293272Y520099D01*
X293668Y520402D01*
X293971Y520798D01*
X294324Y521150D01*
X294573Y521582D01*
X294876Y521978D01*
X295067Y522438D01*
X295316Y522870D01*
X295445Y523351D01*
X295636Y523812D01*
X295701Y524306D01*
X295830Y524787D01*
Y525286D01*
X295895Y525780D01*
X295834Y526244D01*
X296012Y526872D01*
X296977Y527400D01*
X323585D01*
Y518186D01*
D02*
G37*
G36*
X298559Y479049D02*
X300343Y477680D01*
X302421Y476820D01*
X304650Y476526D01*
X317650D01*
X319879Y476820D01*
X321536Y477506D01*
X322646Y477064D01*
X322921Y476819D01*
X322987Y476373D01*
X314967Y468354D01*
X304650D01*
X302421Y468060D01*
X300343Y467200D01*
X298559Y465831D01*
X298435Y465669D01*
X297165Y466100D01*
Y478780D01*
X298435Y479211D01*
X298559Y479049D01*
D02*
G37*
G36*
X336125Y466342D02*
Y463570D01*
X315508Y442954D01*
X304650D01*
X302421Y442660D01*
X300343Y441800D01*
X298559Y440431D01*
X298435Y440269D01*
X297165Y440700D01*
Y453380D01*
X298435Y453811D01*
X298559Y453649D01*
X300343Y452280D01*
X302421Y451420D01*
X304650Y451126D01*
X317650D01*
X319879Y451420D01*
X321957Y452280D01*
X323741Y453649D01*
X325110Y455433D01*
X325970Y457511D01*
X326021Y457897D01*
X334952Y466828D01*
X336125Y466342D01*
D02*
G37*
G36*
X682027Y316252D02*
X673265Y307490D01*
X668940D01*
Y300444D01*
X668898Y300123D01*
X663193Y294419D01*
X662020Y294904D01*
Y297956D01*
X662085Y298450D01*
Y299720D01*
X662020Y300214D01*
Y307490D01*
X646940D01*
Y307325D01*
X634490D01*
Y308760D01*
X619410D01*
Y300214D01*
X619345Y299720D01*
X619410Y299226D01*
Y290680D01*
X634490D01*
Y292115D01*
X646940D01*
Y289410D01*
X656525D01*
X657011Y288237D01*
X652810Y284035D01*
X643890D01*
X643396Y283970D01*
X634850D01*
Y268890D01*
X643396D01*
X643890Y268825D01*
X655960D01*
X657928Y269084D01*
X659762Y269844D01*
X661338Y271052D01*
X679695Y289410D01*
X681516D01*
X682001Y288237D01*
X667652Y273888D01*
X666444Y272313D01*
X666348Y272080D01*
X665990D01*
Y271217D01*
X665684Y270478D01*
X665528Y269293D01*
X655612Y259378D01*
X654404Y257803D01*
X654200Y257311D01*
X652930Y257563D01*
Y261970D01*
X644384D01*
X643890Y262035D01*
X605790D01*
X605296Y261970D01*
X604017D01*
X598271Y267717D01*
X598757Y268890D01*
X605296D01*
X605790Y268825D01*
X620600D01*
X622568Y269084D01*
X624403Y269844D01*
X625276Y270514D01*
X625445Y270611D01*
X625582Y270749D01*
X625978Y271052D01*
X626408Y271482D01*
X626711Y271878D01*
X626848Y272015D01*
X626946Y272184D01*
X627616Y273057D01*
X628376Y274892D01*
X628635Y276860D01*
X628376Y278828D01*
X627616Y280662D01*
X626408Y282238D01*
X624832Y283446D01*
X622998Y284206D01*
X621030Y284465D01*
X619062Y284206D01*
X618649Y284035D01*
X605790D01*
X605296Y283970D01*
X596750D01*
Y277700D01*
X605790D01*
Y275160D01*
X596750D01*
Y270897D01*
X595577Y270411D01*
X591454Y274534D01*
X589786Y275648D01*
X587820Y276039D01*
X579322D01*
X578760Y277178D01*
X579110Y277633D01*
X579970Y279711D01*
X580021Y280097D01*
X591552Y291628D01*
X592761Y293204D01*
X593076Y293963D01*
X593521Y295038D01*
X593780Y297006D01*
Y309975D01*
X601230Y317425D01*
X681540D01*
X682027Y316252D01*
D02*
G37*
G36*
X867505Y240030D02*
X867040Y237691D01*
Y234729D01*
X867618Y231823D01*
X868752Y229086D01*
X870398Y226623D01*
X871954Y225067D01*
X871428Y223797D01*
X840815D01*
X782120Y282491D01*
Y284691D01*
X781542Y287597D01*
X780408Y290334D01*
X778762Y292797D01*
X776667Y294892D01*
X774204Y296538D01*
X771467Y297672D01*
X768561Y298250D01*
X765599D01*
X762693Y297672D01*
X759956Y296538D01*
X757493Y294892D01*
X755398Y292797D01*
X753752Y290334D01*
X752618Y287597D01*
X752040Y284691D01*
Y284191D01*
X748165Y280317D01*
X732400D01*
Y281730D01*
X721112D01*
X719770Y281907D01*
X719770Y281907D01*
X701040D01*
X698665Y281594D01*
X698197Y282197D01*
X698010Y282735D01*
X704685Y289410D01*
X709010D01*
Y296456D01*
X709075Y296950D01*
Y298450D01*
X709010Y298944D01*
Y304885D01*
X715930D01*
Y298944D01*
X715865Y298450D01*
X715930Y297956D01*
Y289410D01*
X731010D01*
Y290845D01*
X737870D01*
X738364Y290910D01*
X738863D01*
X739344Y291039D01*
X739838Y291104D01*
X740299Y291295D01*
X740780Y291424D01*
X741212Y291673D01*
X741673Y291864D01*
X742068Y292167D01*
X742500Y292416D01*
X742852Y292769D01*
X743248Y293072D01*
X743551Y293468D01*
X743904Y293820D01*
X744153Y294252D01*
X744456Y294648D01*
X744647Y295108D01*
X744896Y295540D01*
X745025Y296021D01*
X745216Y296482D01*
X745281Y296976D01*
X745410Y297457D01*
Y297956D01*
X745475Y298450D01*
X745410Y298944D01*
Y299443D01*
X745281Y299924D01*
X745216Y300418D01*
X745025Y300879D01*
X744896Y301360D01*
X744647Y301792D01*
X744456Y302253D01*
X744153Y302648D01*
X743904Y303080D01*
X743551Y303432D01*
X743411Y303615D01*
X743626Y304393D01*
X743956Y304885D01*
X802650D01*
X867505Y240030D01*
D02*
G37*
G36*
X596750Y254703D02*
Y247635D01*
X591310D01*
X579825Y259120D01*
X579110Y260847D01*
X577741Y262631D01*
X575957Y264000D01*
X574770Y264491D01*
X575023Y265761D01*
X585691D01*
X596750Y254703D01*
D02*
G37*
G36*
X636285Y227880D02*
X636544Y225912D01*
X637304Y224077D01*
X638512Y222502D01*
X643980Y217035D01*
Y214315D01*
X633780D01*
Y221756D01*
X633845Y222250D01*
Y223750D01*
X633780Y224244D01*
Y231290D01*
X629455D01*
X628674Y232071D01*
X628665Y232093D01*
X628656Y232657D01*
X628900Y233641D01*
X629038Y233747D01*
X629470Y233997D01*
X629822Y234349D01*
X630218Y234652D01*
X630521Y235048D01*
X630873Y235400D01*
X631123Y235832D01*
X631426Y236227D01*
X631617Y236688D01*
X631866Y237120D01*
X631995Y237601D01*
X632186Y238062D01*
X632251Y238556D01*
X632380Y239037D01*
Y239536D01*
X632445Y240030D01*
X632380Y240524D01*
Y241023D01*
X632251Y241504D01*
X632186Y241998D01*
X631995Y242459D01*
X631866Y242940D01*
X631617Y243372D01*
X631426Y243832D01*
X631123Y244228D01*
X630873Y244660D01*
X630521Y245012D01*
X630218Y245408D01*
X630026Y245555D01*
X630111Y246182D01*
X630504Y246825D01*
X636285D01*
Y227880D01*
D02*
G37*
%LPC*%
G36*
X612490Y308760D02*
X606220D01*
Y300990D01*
X612490D01*
Y308760D01*
D02*
G37*
G36*
X603680D02*
X597410D01*
Y300990D01*
X603680D01*
Y308760D01*
D02*
G37*
G36*
X612490Y298450D02*
X606220D01*
Y290680D01*
X612490D01*
Y298450D01*
D02*
G37*
G36*
X603680D02*
X597410D01*
Y290680D01*
X603680D01*
Y298450D01*
D02*
G37*
%LPD*%
D23*
X208710Y222250D02*
D03*
X230710D02*
D03*
X604950Y95890D02*
D03*
X626950D02*
D03*
X677750Y172720D02*
D03*
X702740D02*
D03*
X724740D02*
D03*
X655750D02*
D03*
X626240Y222250D02*
D03*
X625680Y173990D02*
D03*
X604240Y222250D02*
D03*
X603680Y173990D02*
D03*
X723470Y298450D02*
D03*
X701470D02*
D03*
X676480D02*
D03*
X654480D02*
D03*
X626950Y299720D02*
D03*
X604950D02*
D03*
X935150Y468630D02*
D03*
X957150D02*
D03*
D24*
X55880Y211250D02*
D03*
Y233250D02*
D03*
X246380Y121490D02*
D03*
Y99490D02*
D03*
Y160450D02*
D03*
Y182450D02*
D03*
X604520Y150700D02*
D03*
Y128700D02*
D03*
X638810D02*
D03*
Y150700D02*
D03*
X643890Y254430D02*
D03*
Y276430D02*
D03*
X605790D02*
D03*
Y254430D02*
D03*
X786660Y441120D02*
D03*
Y463120D02*
D03*
X622300Y494460D02*
D03*
Y516460D02*
D03*
Y461850D02*
D03*
Y439850D02*
D03*
D25*
X652230Y93890D02*
D03*
X685230D02*
D03*
X684520Y220250D02*
D03*
X651520D02*
D03*
D26*
X732790Y342570D02*
D03*
Y396570D02*
D03*
X854710Y334950D02*
D03*
Y388950D02*
D03*
Y534340D02*
D03*
Y588340D02*
D03*
D27*
X722070Y103830D02*
D03*
Y143830D02*
D03*
X721360Y230190D02*
D03*
Y270190D02*
D03*
X791210Y498160D02*
D03*
Y538160D02*
D03*
D28*
X92640Y212750D02*
D03*
X115640Y222250D02*
D03*
X92640Y231750D02*
D03*
X673740Y123220D02*
D03*
Y142220D02*
D03*
X696740Y132720D02*
D03*
X696030Y256540D02*
D03*
X673030Y247040D02*
D03*
Y266040D02*
D03*
D29*
X854710Y422240D02*
D03*
Y497240D02*
D03*
D30*
X785658Y380240D02*
D03*
Y412240D02*
D03*
D31*
X632780Y386080D02*
D03*
X672780D02*
D03*
D32*
X142560Y220980D02*
D03*
X182560D02*
D03*
D33*
X677200Y438346D02*
D03*
X694200D02*
D03*
X711200D02*
D03*
X728200D02*
D03*
X745200D02*
D03*
D34*
X711200Y578600D02*
D03*
D35*
X711200Y546100D02*
D03*
D65*
X165100Y177700D02*
X206910Y135890D01*
X242681Y160450D02*
X246380D01*
X257760D01*
X276150Y178840D01*
X309650D01*
X311150Y180340D01*
X222250Y273050D02*
X165181D01*
X94596Y343636D01*
Y363435D01*
X55880Y402150D01*
Y469270D01*
X231140Y467680D02*
X268920D01*
X269240Y467360D01*
X165100Y220980D02*
X182560D01*
X183060D01*
X184060Y219980D01*
Y219071D01*
X242681Y160450D01*
X165100Y220980D02*
Y177700D01*
X504190Y180340D02*
X565150D01*
X701040Y271780D02*
X719770D01*
X719860Y271690D01*
X720360D01*
X721360Y270690D01*
Y270190D01*
X752360D01*
X765380Y283210D01*
X767080D01*
X836620Y213670D01*
X891416D01*
X913956Y236210D01*
X952080D01*
X952435Y235855D01*
Y114015D01*
X952790Y113660D01*
X767790Y160660D02*
X750960Y143830D01*
X722070D01*
X632780Y386080D02*
Y430870D01*
X623800Y439850D01*
X622300D02*
X621460Y440690D01*
X607060D01*
X676910Y413120D02*
Y438056D01*
X677200Y438346D01*
X675700Y439846D01*
Y466759D01*
X625999Y516460D01*
X622300D01*
D66*
X130910Y135890D02*
Y209830D01*
X142060Y220980D01*
X142560D01*
X141290Y222250D01*
X115640D01*
X92640Y231750D02*
X97910Y237020D01*
X195440D01*
X208710Y223750D01*
Y222250D01*
X230710D02*
Y244680D01*
X293370Y307340D01*
X317650Y332740D02*
X521690Y128700D01*
X604520D01*
X638810D01*
X640310D01*
X652230Y116780D01*
Y93890D01*
X680700Y142220D02*
X702740Y164260D01*
Y172720D01*
X677750Y174220D02*
X690290Y186760D01*
X809690D01*
X882790Y113660D01*
X882080Y236210D02*
X805800Y312490D01*
X689020D01*
X676480Y299950D01*
Y298450D01*
Y296950D01*
X655960Y276430D01*
X643890D01*
Y254430D02*
Y227880D01*
X650520Y221250D01*
X651520D01*
Y220250D01*
X659643Y206710D02*
X664060Y211127D01*
Y229373D01*
X660990Y232443D01*
Y254000D01*
X673030Y266040D01*
Y268510D01*
X701470Y296950D01*
Y298450D01*
X723470D02*
X737870D01*
X715010Y325030D02*
X598080D01*
X586175Y313125D01*
Y297006D01*
X571109Y281940D01*
X571650Y256540D02*
X588160Y240030D01*
X624840D01*
X622500Y227490D02*
X626240Y223750D01*
Y222250D01*
X618280Y206710D02*
X659643D01*
X655750Y173990D02*
X625680D01*
X638810Y150700D02*
X640310D01*
X644370Y154760D01*
X671892D01*
X677750Y160618D01*
Y174220D01*
X680700Y142220D02*
X662960D01*
X696740Y132720D02*
Y129660D01*
X722070Y104330D01*
Y103830D01*
X753901D01*
X763731Y113660D01*
X767790D01*
X736600Y172720D02*
X724740D01*
X757001Y230190D02*
X763021Y236210D01*
X767080D01*
X757001Y230190D02*
X721360D01*
Y230690D01*
X696030Y256020D01*
Y256540D01*
X643890Y254430D02*
X605790D01*
X604240Y222250D02*
Y220750D01*
X618280Y206710D01*
X655750Y173990D02*
Y172720D01*
X622500Y227490D02*
X617220D01*
X620600Y276430D02*
X620815Y276645D01*
X621030Y276860D01*
X620600Y276430D02*
X605790D01*
X626950Y299720D02*
X654480D01*
Y298450D01*
X731790Y386080D02*
X732790Y387080D01*
Y396570D01*
Y408070D01*
X729200Y411660D01*
Y437346D01*
X728200Y438346D01*
X729200Y439346D01*
Y456509D01*
X736077Y463386D01*
X762894D01*
X785160Y441120D01*
X786660D01*
Y412740D01*
X786160Y412240D01*
X839710D01*
X849710Y422240D01*
X854710D01*
Y388950D01*
X786160Y412240D02*
X785658D01*
X731790Y386080D02*
X672780D01*
X694200Y438346D02*
X695200Y439346D01*
Y472950D01*
X717585Y495335D01*
X748885D01*
X791210Y537660D01*
X827630Y501240D01*
X850710D01*
X854710Y497240D01*
X623800Y439850D02*
X622300D01*
X565150Y510540D02*
X558650D01*
X472290Y596900D01*
X187960D01*
X142240Y551180D01*
Y528320D01*
X106680Y492760D01*
Y417830D01*
X143510Y381000D01*
Y361000D02*
X157090Y374580D01*
Y390280D01*
X119380Y427990D01*
Y485460D01*
X142240Y508320D01*
Y508883D01*
X143280Y509923D01*
Y510155D01*
X155820Y522695D01*
Y541900D01*
X198280Y584360D01*
X462120D01*
X545110Y501370D01*
Y448421D01*
X559191Y434340D01*
X565150D01*
Y256540D02*
X571650D01*
X590550Y175260D02*
X603680D01*
Y173990D01*
X604520Y109220D02*
X604950Y108790D01*
Y95890D01*
X311150Y383540D02*
X304650D01*
X289560Y398630D01*
Y501650D01*
X263530Y527680D01*
X231140D01*
X225515Y541260D02*
X272810D01*
X288290Y525780D01*
X331190Y545063D02*
X321263Y554990D01*
X211325D01*
X210820Y571820D02*
X322167D01*
X343730Y550257D01*
Y460420D01*
X317650Y434340D01*
X311150D01*
Y459740D02*
X317109D01*
X331190Y473821D01*
Y545063D01*
X225515Y541260D02*
X217560Y533305D01*
Y521823D01*
X231140Y508243D01*
Y507680D01*
X143820Y321310D02*
X157480D01*
X143820D02*
X143510Y321000D01*
X91140Y233250D02*
X92640Y231750D01*
X91140Y233250D02*
X55880D01*
X130910Y135890D02*
X170371D01*
X206772Y99490D01*
X246380D01*
Y121490D02*
X244880D01*
X230480Y135890D01*
X206910D01*
D67*
X311150Y358140D02*
X466837D01*
X554077Y270900D01*
X587820D01*
X604290Y254430D01*
X605790D01*
D68*
X957180Y577590D02*
D03*
D69*
X992180Y529590D02*
D03*
D70*
X932180Y529590D02*
D03*
D71*
X767790Y113660D02*
D03*
Y160660D02*
D03*
X767080Y236210D02*
D03*
Y283210D02*
D03*
X882080Y236210D02*
D03*
X952080D02*
D03*
X882790Y113660D02*
D03*
X952790D02*
D03*
X1041300Y392790D02*
D03*
Y437790D02*
D03*
X941300D02*
D03*
Y392790D02*
D03*
D72*
X311150Y180340D02*
D03*
Y205740D02*
D03*
Y231140D02*
D03*
Y256540D02*
D03*
Y281940D02*
D03*
Y307340D02*
D03*
Y332740D02*
D03*
Y358140D02*
D03*
Y383540D02*
D03*
Y408940D02*
D03*
Y434340D02*
D03*
Y459740D02*
D03*
Y485140D02*
D03*
Y510540D02*
D03*
X565150Y281940D02*
D03*
Y256540D02*
D03*
Y231140D02*
D03*
Y205740D02*
D03*
Y180340D02*
D03*
Y307340D02*
D03*
Y332740D02*
D03*
Y358140D02*
D03*
Y383540D02*
D03*
Y408940D02*
D03*
Y434340D02*
D03*
Y459740D02*
D03*
Y485140D02*
D03*
Y510540D02*
D03*
Y535940D02*
D03*
D73*
X311150Y535940D02*
D03*
D74*
X240030Y290830D02*
D03*
Y316230D02*
D03*
Y341630D02*
D03*
Y367030D02*
D03*
D75*
X240030Y392430D02*
D03*
D76*
X143510Y341000D02*
D03*
Y361000D02*
D03*
Y381000D02*
D03*
X53340Y381950D02*
D03*
Y361950D02*
D03*
Y341950D02*
D03*
X231140Y487680D02*
D03*
Y507680D02*
D03*
Y527680D02*
D03*
X142240Y528320D02*
D03*
Y508320D02*
D03*
Y488320D02*
D03*
X55880Y529270D02*
D03*
Y509270D02*
D03*
Y489270D02*
D03*
D77*
X143510Y321000D02*
D03*
X53340Y321950D02*
D03*
X231140Y467680D02*
D03*
X142240Y468320D02*
D03*
X55880Y469270D02*
D03*
D78*
X33020Y35560D02*
D03*
X35560Y607060D02*
D03*
X1061720Y35560D02*
D03*
X1060450Y609600D02*
D03*
D79*
X130910Y135890D02*
D03*
D80*
X206910Y135890D02*
D03*
D81*
X987500Y113670D02*
D03*
Y151770D02*
D03*
Y236220D02*
D03*
Y274320D02*
D03*
D82*
X165100Y220980D02*
D03*
X157480Y321310D02*
D03*
X269240Y467360D02*
D03*
X288290Y525780D02*
D03*
X211325Y554990D02*
D03*
X212090Y570230D02*
D03*
X604520Y440690D02*
D03*
X676910Y411480D02*
D03*
X715010Y325030D02*
D03*
X737870Y298450D02*
D03*
X701040Y271780D02*
D03*
X620815Y276645D02*
D03*
X624840Y240030D02*
D03*
X617220Y227490D02*
D03*
X590550Y175260D02*
D03*
X504190Y180340D02*
D03*
X736600Y172720D02*
D03*
D83*
X604520Y109220D02*
D03*
X662940Y142240D02*
D03*
X740410Y525780D02*
D03*
X739140Y543560D02*
D03*
Y558800D02*
D03*
X711200D02*
D03*
Y543560D02*
D03*
Y527050D02*
D03*
X681990Y558800D02*
D03*
Y542290D02*
D03*
Y527050D02*
D03*
M02*
